<svg width="71" height="67" viewBox="0 0 71 67" fill="none" xmlns="http://www.w3.org/2000/svg">
<path fillRule="evenodd" clipRule="evenodd" d="M4.49548 6.05484L1.84849 5.91467L1.8365 8.58792L1.83516 9.14516C1.83437 9.57925 1.83331 10.3286 1.83226 11.5912C1.83015 14.1161 1.82805 18.695 1.82805 26.9116V27.9671L4.96436 31.1302C3.72253 31.9181 2.47483 32.697 1.22139 33.4669L0.00981502 34.2111L0 51.833L14.4665 66.4324L15.4162 66.495C33.1671 67.6644 51.4227 66.3669 68.5271 60.4155L70.2297 59.8232V38.6477L66.5294 34.9157C67.1598 34.288 67.7889 33.6549 68.4133 33.018L69.1432 32.2735V31.2264C69.1432 30.5037 69.1454 26.7188 69.1475 23.113L69.1524 15.0275L54.2519 0L52.7688 0.501072C37.3692 5.70397 20.8524 6.92097 4.49548 6.05484ZM53.5715 2.91719L66.6252 16.0823C66.6252 16.0823 66.6167 29.7789 66.6167 31.2264C65.9963 31.8593 65.3706 32.4889 64.7428 33.1139C64.1415 33.7123 63.5383 34.3065 62.9358 34.895L67.7032 39.7031V58.0067C51.0101 63.8151 33.1126 65.1073 15.5809 63.9523L2.52712 50.7787L2.53555 35.6432C3.96304 34.7664 5.38332 33.878 6.79618 32.9775C7.5253 32.5129 8.25243 32.0451 8.97753 31.574L4.35458 26.9116C4.35458 18.1902 4.35695 13.5682 4.35918 11.1508C4.36116 9.01331 4.36301 8.59938 4.36301 8.59938C5.20434 8.64394 6.04645 8.68307 6.88917 8.71651C22.6282 9.34122 38.578 7.98286 53.5715 2.91719Z" fill="white"/>
<path fillRule="evenodd" clipRule="evenodd" d="M4.36421 8.59937C20.9187 9.47599 37.7764 8.25407 53.5726 2.91718L66.6264 16.0823C66.6264 16.0823 66.618 29.7789 66.618 31.2264C65.4031 32.4654 64.1686 33.6919 62.937 34.895L67.7043 39.7031V58.0067C51.0113 63.815 33.1137 65.1073 15.582 63.9523L2.52832 50.7787L2.53676 35.6432C4.70091 34.3139 6.84851 32.9579 8.97877 31.574L4.35578 26.9116C4.35578 10.479 4.36421 8.59937 4.36421 8.59937Z" fill="#0D0D0D"/>
<path d="M61.5636 22.7414V30.0798C53.4197 37.9109 45.2758 44.7398 37.1404 50.8297C45.6464 50.2607 54.1439 48.8932 62.6583 46.4131C62.6583 49.1225 62.6583 51.8235 62.6583 54.533C50.9183 57.9644 39.1869 59.2639 27.4553 59.2639C25.1815 59.2639 22.9076 59.2129 20.6338 59.1195V51.781C28.7776 46.5574 36.9215 40.7903 45.0569 34.1908C39.2038 34.9466 33.3505 35.2695 27.4974 35.2695C25.8131 35.2695 24.1372 35.244 22.4528 35.193C22.4528 32.4835 22.4528 29.7825 22.4528 27.0731C24.1203 27.1241 25.7795 27.1495 27.447 27.1495C38.8163 27.1495 50.1857 25.9349 61.5551 22.7329L61.5636 22.7414Z" fill="white"/>
</svg>
