<svg width="1353" height="961" viewBox="0 0 1353 961" fill="none" xmlns="http://www.w3.org/2000/svg" xmlns:xlink="http://www.w3.org/1999/xlink">
<path d="M194.361 241.211C238.168 216.8 293.499 232.532 317.91 276.339C342.321 320.145 326.589 375.477 282.783 399.887C238.977 424.298 183.657 408.588 159.234 364.76C134.811 320.932 150.534 265.634 194.361 241.211Z" fill="#53AE94"/>
<path d="M242.491 304.515L235.911 292.707L262.91 277.662L252.884 259.669L179.364 300.638L189.39 318.63L216.389 303.585L222.957 315.372C201.586 328.608 187.494 342.136 190.399 347.351C193.305 352.565 212.224 347.699 234.724 336.488L255.797 374.304L275.319 363.426L254.258 325.631C275.586 312.419 289.635 298.915 286.729 293.7C283.835 288.507 264.959 293.35 242.491 304.515ZM252.469 322.421C251.921 322.754 249.194 324.5 242.902 328.006C237.86 330.816 234.242 332.634 232.956 333.266L232.968 333.287C213.117 343.22 196.764 347.927 194.506 343.876C192.249 339.825 204.834 328.407 223.747 316.739L231.095 329.926C232.414 329.304 236.155 327.502 241.175 324.704C247.187 321.354 250.081 319.403 250.617 319.047L243.269 305.86C263.099 295.94 279.421 291.278 281.666 295.307C283.89 299.348 271.317 310.788 252.469 322.421Z" fill="white"/>
<path d="M1046.22 357.031C1000.84 335.699 981.326 281.583 1002.66 236.198C1023.99 190.813 1078.11 171.304 1123.49 192.636C1168.88 213.968 1188.4 268.061 1167.05 313.468C1145.71 358.876 1091.63 378.374 1046.22 357.031Z" fill="#53AE94"/>
<path d="M1069.55 281.006L1063.8 293.239L1035.82 280.092L1027.06 298.732L1103.23 334.534L1111.99 315.894L1084.02 302.746L1089.76 290.535C1112.98 300.167 1132.19 303.718 1134.73 298.315C1137.27 292.913 1122.28 280.388 1100.04 268.657L1118.46 229.478L1098.23 219.972L1079.83 259.128C1056.65 249.517 1037.49 245.987 1034.95 251.39C1032.42 256.77 1047.37 269.273 1069.55 281.006ZM1078.27 262.454C1078.86 262.705 1081.86 263.901 1088.38 266.965C1093.61 269.42 1097.19 271.297 1098.46 271.973L1098.47 271.951C1118.12 282.277 1131.48 292.811 1129.51 297.007C1127.54 301.204 1110.92 297.646 1090.41 289.096L1096.83 275.433C1095.56 274.725 1091.91 272.739 1086.71 270.294C1080.48 267.366 1077.21 266.155 1076.61 265.927L1070.18 279.589C1050.56 269.273 1037.25 258.738 1039.21 254.563C1041.19 250.399 1057.82 253.935 1078.27 262.454Z" fill="white"/>
<ellipse cx="639.039" cy="376.989" rx="321.398" ry="321.319" fill="url(#paint0_linear_1766_19563)"/>
<path d="M639.039 55.6699C558.05 55.6699 480.047 86.2386 420.631 141.262C361.216 196.285 324.769 271.705 318.58 352.437C312.392 433.17 336.918 513.262 387.254 576.693C437.59 640.125 510.023 682.219 590.067 694.557C670.11 706.894 751.861 688.565 818.969 643.236C886.077 597.906 933.593 528.919 952.014 450.072C970.434 371.225 958.401 288.332 918.321 217.973C878.24 147.614 813.068 94.9772 735.84 70.5904L639.039 376.989V55.6699Z" fill="#0E9953"/>
<path d="M639.039 55.6699C562.485 55.6699 488.444 82.989 430.244 132.71C372.045 182.431 333.508 251.288 321.572 326.888C309.635 402.487 325.082 479.864 365.132 545.09C405.182 610.317 467.205 659.109 540.037 682.685C612.869 706.26 691.726 703.071 762.415 673.691C833.105 644.311 890.983 590.67 925.632 522.422C960.282 454.175 969.427 375.804 951.421 301.415C933.416 227.026 889.442 161.506 827.415 116.647L639.039 376.989V55.6699Z" fill="url(#paint1_linear_1766_19563)"/>
<path d="M639.039 55.6699C566.879 55.6699 496.819 79.9471 440.138 124.593C383.457 169.239 343.452 231.655 326.565 301.794C309.679 371.932 316.892 445.712 347.044 511.253C377.196 576.795 428.532 630.286 492.788 663.114C557.044 695.942 630.48 706.197 701.274 692.227C772.067 678.258 836.099 640.877 883.061 586.104C930.022 531.33 957.18 462.35 960.163 390.27C963.145 318.19 941.779 247.204 899.503 188.739L639.039 376.989V55.6699Z" fill="#0E9953"/>
<path d="M639.039 55.6699C571.184 55.6699 505.07 77.1405 450.168 117.006C395.266 156.871 354.392 213.086 333.403 277.597C312.414 342.108 312.386 411.606 333.323 476.134C354.26 540.662 395.087 596.91 449.957 636.82C504.827 676.73 570.924 698.254 638.779 698.309C706.633 698.364 772.765 676.947 827.699 637.126C882.634 597.305 923.553 541.123 944.594 476.629C965.636 412.135 965.72 342.638 944.835 278.092L639.039 376.989V55.6699Z" fill="url(#paint2_linear_1766_19563)"/>
<path d="M639.039 55.6699C575.472 55.6699 513.333 74.515 460.48 109.822C407.626 145.129 366.431 195.312 342.106 254.026C317.78 312.739 311.415 377.346 323.816 439.676C336.217 502.006 366.828 559.259 411.776 604.197C456.724 649.134 513.992 679.737 576.337 692.135C638.682 704.533 703.305 698.17 762.033 673.85C820.761 649.53 870.956 608.346 906.272 555.505C941.588 502.664 960.437 440.54 960.437 376.989H639.039V55.6699Z" fill="#0E9953"/>
<path d="M639.039 55.6699C579.857 55.6699 521.825 72.0065 471.338 102.879C420.852 133.751 379.872 177.961 352.916 230.634C325.96 283.307 314.074 342.399 318.569 401.395C323.064 460.391 343.765 517.001 378.391 564.984C413.016 612.968 460.221 650.461 514.803 673.332C569.384 696.203 629.222 703.563 687.721 694.602C746.219 685.64 801.107 660.704 846.334 622.542C891.56 584.381 925.37 534.476 944.035 478.328L639.039 376.989V55.6699Z" fill="url(#paint3_linear_1766_19563)"/>
<path d="M639.039 55.6699C584.235 55.6699 530.341 69.6805 482.479 96.3703C434.616 123.06 394.376 161.542 365.58 208.161C336.785 254.779 320.391 307.984 317.958 362.721C315.524 417.457 327.131 471.907 351.676 520.896C376.22 569.884 412.887 611.784 458.192 642.614C503.497 673.444 555.935 692.18 610.523 697.042C665.111 701.903 720.036 692.728 770.078 670.389C820.12 648.05 863.617 613.289 896.436 569.409L639.039 376.989V55.6699Z" fill="#0E9953"/>
<path d="M639.039 55.6699C588.405 55.6699 538.487 67.6304 493.353 90.5766C448.22 113.523 409.148 146.805 379.321 187.712C349.494 228.619 329.757 275.993 321.718 325.972C313.678 375.952 317.564 427.124 333.059 475.317C348.554 523.51 375.219 567.362 410.881 603.298C446.543 639.234 490.193 666.238 538.275 682.109C586.356 697.979 637.508 702.268 687.562 694.626C737.616 686.983 785.155 667.625 826.306 638.13L639.039 376.989V55.6699Z" fill="url(#paint4_linear_1766_19563)"/>
<path d="M639.039 55.6699C592.679 55.6699 546.867 65.697 504.748 85.0632C462.628 104.429 425.198 132.676 395.026 167.865C364.853 203.055 342.652 244.353 329.946 288.927C317.241 333.502 314.331 380.296 321.417 426.101C328.503 471.905 345.416 515.635 370.997 554.289C396.578 592.943 430.221 625.607 469.617 650.04C509.013 674.472 553.23 690.094 599.233 695.835C645.236 701.575 691.937 697.298 736.132 683.296L639.039 376.989V55.6699Z" fill="#0E9953"/>
<path d="M639.039 55.6699C596.832 55.6699 555.039 63.9811 516.045 80.1289C477.051 96.2767 441.621 119.945 411.776 149.782C381.931 179.619 358.257 215.041 342.106 254.026C325.954 293.01 317.641 334.793 317.641 376.989C317.641 419.186 325.954 460.969 342.106 499.953C358.257 538.937 381.931 574.359 411.776 604.197C441.621 634.034 477.051 657.702 516.045 673.85C555.039 689.998 596.832 698.309 639.039 698.309L639.039 376.989V55.6699Z" fill="url(#paint5_linear_1766_19563)"/>
<path d="M639.039 55.6699C562.53 55.6699 488.531 82.9565 430.345 132.624C372.16 182.291 333.605 251.081 321.613 326.626C309.621 402.17 324.978 479.514 364.924 544.751C404.869 609.988 466.782 658.839 539.532 682.521L639.039 376.989V55.6699Z" fill="#0E9953"/>
<path d="M639.039 55.6699C570.931 55.6699 504.583 77.301 449.568 117.442C394.553 157.584 353.716 214.16 332.948 279.009C312.179 343.857 312.553 413.626 334.017 478.248C355.48 542.87 396.922 599.005 452.365 638.554L639.039 376.989V55.6699Z" fill="url(#paint6_linear_1766_19563)"/>
<path d="M639.039 55.6699C579.666 55.6699 521.453 72.1123 470.858 103.173C420.263 134.234 379.262 178.7 352.404 231.638C325.546 284.576 313.881 343.917 318.702 403.079C323.523 462.242 344.642 518.913 379.716 566.807L639.039 376.989V55.6699Z" fill="#0E9953"/>
<path d="M639.039 55.6699C588.07 55.6699 537.832 67.7889 492.472 91.0266C447.111 114.264 407.929 147.954 378.16 189.315C348.39 230.677 328.887 278.523 321.26 328.906C313.632 379.289 318.1 430.762 334.294 479.078L639.039 376.989V55.6699Z" fill="url(#paint7_linear_1766_19563)"/>
<path d="M639.039 55.6699C596.832 55.6699 555.039 63.9811 516.045 80.1289C477.051 96.2767 441.621 119.945 411.776 149.782C381.931 179.62 358.257 215.042 342.106 254.026C325.954 293.01 317.641 334.793 317.641 376.989L639.039 376.989V55.6699Z" fill="#0E9953"/>
<path d="M639.039 55.6699C570.859 55.6699 504.446 77.3464 449.399 117.566C394.353 157.785 353.526 214.463 332.82 279.407L639.039 376.989V55.6699Z" fill="url(#paint8_linear_1766_19563)"/>
<path d="M639.039 55.6699C587.971 55.6699 537.639 67.8358 492.212 91.1597C446.785 114.484 407.571 148.294 377.819 189.789L639.039 376.989V55.6699Z" fill="#0E9953"/>
<path d="M639.039 55.6699C570.129 55.6699 503.043 77.8128 447.678 118.832L639.039 376.989V55.6699Z" fill="url(#paint9_linear_1766_19563)"/>
<path d="M639.039 55.6699C605.027 55.6699 571.231 61.0674 538.911 71.6607L639.039 376.989V55.6699Z" fill="#0E9953"/>
<g filter="url(#filter0_d_1766_19563)">
<rect x="603.48" y="340.788" width="71.0696" height="72.2986" fill="url(#pattern0)"/>
<path d="M669.638 346.408C661.804 338.576 650.987 333.735 639.039 333.735C627.09 333.735 616.273 338.576 608.45 346.408C600.615 354.23 595.773 365.044 595.773 376.99C595.773 388.936 600.615 399.749 608.439 407.571C616.273 415.404 627.09 420.244 639.028 420.244C650.977 420.244 661.793 415.404 669.628 407.571C677.462 399.739 682.304 388.925 682.304 376.98C682.314 365.044 677.472 354.23 669.638 346.408ZM662.645 400.591C656.609 406.626 648.265 410.366 639.049 410.366C629.833 410.366 621.489 406.626 615.453 400.591C609.416 394.556 605.675 386.214 605.675 377C605.675 367.786 609.405 359.445 615.453 353.41C621.489 347.374 629.833 343.635 639.049 343.635C648.265 343.635 656.609 347.364 662.645 353.41C668.682 359.445 672.423 367.786 672.423 377C672.423 386.204 668.682 394.545 662.645 400.591Z" fill="url(#paint10_linear_1766_19563)"/>
</g>
<g filter="url(#filter1_d_1766_19563)">
<path d="M963.376 376.481C963.376 558.327 817.35 705.743 637.217 705.743C457.085 705.743 311.059 558.327 311.059 376.481C311.059 194.634 457.085 47.2183 637.217 47.2183C817.35 47.2183 963.376 194.634 963.376 376.481ZM318.542 376.481C318.542 554.155 461.218 698.189 637.217 698.189C813.217 698.189 955.893 554.155 955.893 376.481C955.893 198.806 813.217 54.7725 637.217 54.7725C461.218 54.7725 318.542 198.806 318.542 376.481Z" fill="url(#paint11_linear_1766_19563)"/>
</g>
<g filter="url(#filter2_d_1766_19563)">
<path d="M284.676 376.481C284.676 180.066 442.515 20.8411 637.219 20.8412C831.923 20.8412 989.762 180.067 989.762 376.481C989.762 572.895 831.923 732.121 637.219 732.121C442.515 732.121 284.676 572.895 284.676 376.481ZM963.897 376.481C963.897 194.477 817.638 46.933 637.219 46.933C456.799 46.9329 310.541 194.477 310.541 376.481C310.541 558.485 456.799 706.029 637.219 706.029C817.638 706.029 963.897 558.485 963.897 376.481Z" fill="url(#paint12_linear_1766_19563)"/>
</g>
<ellipse cx="585.471" cy="37.1315" rx="8.24099" ry="8.23896" fill="#0E9953"/>
<ellipse cx="397.991" cy="133.941" rx="8.24098" ry="8.23896" fill="#0E9953"/>
<ellipse cx="303.218" cy="321.377" rx="8.24098" ry="8.23895" fill="#0E9953"/>
<ellipse cx="336.182" cy="535.588" rx="8.24098" ry="8.23895" fill="#0E9953"/>
<ellipse cx="482.155" cy="682.149" rx="8.24099" ry="8.23895" fill="#0E9953"/>
<ellipse cx="695.042" cy="713.984" rx="8.24099" ry="8.23899" fill="#0E9953"/>
<ellipse cx="882.46" cy="613.93" rx="8.24099" ry="8.23895" fill="#0E9953"/>
<ellipse cx="973.44" cy="427.472" rx="8.24099" ry="8.23897" fill="#0E9953"/>
<ellipse cx="943.413" cy="227.366" rx="8.24099" ry="8.23896" fill="#0E9953"/>
<ellipse cx="791.499" cy="70.0886" rx="8.24099" ry="8.23896" fill="#0E9953"/>
<ellipse cx="482.46" cy="72.1477" rx="8.24098" ry="8.23896" fill="url(#paint13_linear_1766_19563)"/>
<ellipse cx="336.182" cy="220.448" rx="8.24098" ry="8.23896" fill="url(#paint14_linear_1766_19563)"/>
<ellipse cx="301.159" cy="434.662" rx="8.24098" ry="8.23897" fill="url(#paint15_linear_1766_19563)"/>
<ellipse cx="400.05" cy="622.098" rx="8.24098" ry="8.23895" fill="url(#paint16_linear_1766_19563)"/>
<ellipse cx="587.686" cy="715.802" rx="8.24099" ry="8.23895" fill="url(#paint17_linear_1766_19563)"/>
<ellipse cx="793.303" cy="681.237" rx="8.24097" ry="8.23895" fill="url(#paint18_linear_1766_19563)"/>
<ellipse cx="943.96" cy="533.53" rx="8.24099" ry="8.23897" fill="url(#paint19_linear_1766_19563)"/>
<ellipse cx="973.44" cy="324.69" rx="8.24099" ry="8.23895" fill="url(#paint20_linear_1766_19563)"/>
<ellipse cx="880.089" cy="133.941" rx="8.24096" ry="8.23896" fill="url(#paint21_linear_1766_19563)"/>
<ellipse cx="690.542" cy="37.1315" rx="8.24097" ry="8.23896" fill="url(#paint22_linear_1766_19563)"/>
<g filter="url(#filter3_d_1766_19563)">
<path d="M595.824 5.37888L639.494 78.144L683.164 5.37888H595.824Z" fill="url(#paint23_linear_1766_19563)"/>
</g>
<path d="M1111.24 465.218H998.11C992.295 465.218 986.677 464.334 981.391 462.712C958.278 455.567 941.477 434.033 941.477 408.579V362.481C941.477 351.806 950.122 343.166 960.791 343.166H1110.28L1066.16 404.634L1111.24 465.218Z" fill="#513100"/>
<path d="M1098.04 465.218H984.91C979.096 465.218 973.478 464.334 968.192 462.712C945.079 455.567 928.277 434.033 928.277 408.579V362.481C928.277 351.806 936.923 343.166 947.592 343.166H1097.08L1052.96 404.634L1098.04 465.218Z" fill="#A78228"/>
<path opacity="0.4" d="M1013.43 343.16V396.778C1013.43 426.838 994.663 452.514 968.192 462.712C945.079 455.568 928.277 434.033 928.277 408.579V362.481C928.277 351.806 936.923 343.167 947.592 343.167H1013.43V343.16Z" fill="black"/>
<path d="M168.022 471.793H281.148C286.963 471.793 292.58 470.908 297.867 469.286C320.98 462.142 337.781 440.607 337.781 415.153V369.055C337.781 358.38 329.136 349.741 318.467 349.741H168.982L213.095 411.209L168.022 471.793Z" fill="#513100"/>
<path d="M181.215 471.793H294.347C300.162 471.793 305.78 470.908 311.066 469.286C334.179 462.142 350.98 440.607 350.98 415.153V369.055C350.98 358.38 342.335 349.741 331.666 349.741H182.182L226.295 411.209L181.215 471.793Z" fill="#C79009"/>
<path opacity="0.4" d="M265.827 349.735V403.352C265.827 433.412 284.595 459.088 311.066 469.286C334.179 462.142 350.98 440.607 350.98 415.153V369.056C350.98 358.38 342.335 349.741 331.666 349.741H265.827V349.735Z" fill="black"/>
<path d="M317.396 452.838C301.684 452.838 287.14 437.618 279.444 413.122C275.826 401.619 273.914 388.502 273.914 375.207V294.662C273.914 287.81 277.038 282.232 280.877 282.232L992.554 282.232C996.393 282.232 999.517 287.81 999.517 294.662V375.198C999.517 418.006 980.012 452.829 956.035 452.829H317.396V452.838Z" fill="url(#paint24_linear_1766_19563)"/>
<g filter="url(#filter4_d_1766_19563)">
<path d="M372.247 397.999V323.99H386.226V384.945H418.091V397.999H372.247ZM447.491 399.644C443.139 399.644 439.593 398.907 436.852 397.434C434.111 395.961 431.969 394.093 430.427 391.832C428.92 389.57 427.841 387.223 427.19 384.791C426.539 382.324 426.145 380.08 426.007 378.058C425.87 376.036 425.802 374.563 425.802 373.638V342.493H439.987V368.704C439.987 369.972 440.055 371.599 440.193 373.587C440.33 375.54 440.758 377.51 441.477 379.497C442.197 381.484 443.362 383.146 444.972 384.482C446.617 385.819 448.93 386.487 451.911 386.487C453.11 386.487 454.395 386.298 455.765 385.921C457.136 385.545 458.421 384.825 459.62 383.763C460.819 382.666 461.796 381.073 462.549 378.983C463.337 376.859 463.731 374.083 463.731 370.657L471.749 374.46C471.749 378.846 470.858 382.958 469.077 386.795C467.295 390.633 464.605 393.733 461.008 396.098C457.444 398.462 452.938 399.644 447.491 399.644ZM465.479 397.999V379.6H463.731V342.493H477.814V397.999H465.479ZM516.642 399.541C510.886 399.541 505.952 398.256 501.84 395.686C497.728 393.117 494.576 389.622 492.383 385.202C490.191 380.782 489.094 375.797 489.094 370.246C489.094 364.627 490.225 359.607 492.486 355.187C494.782 350.767 498.003 347.289 502.148 344.754C506.294 342.219 511.194 340.951 516.847 340.951C523.392 340.951 528.874 342.613 533.294 345.936C537.748 349.225 540.592 353.731 541.825 359.453L527.846 363.153C527.024 360.275 525.585 358.031 523.529 356.421C521.507 354.81 519.212 354.005 516.642 354.005C513.695 354.005 511.28 354.725 509.395 356.164C507.511 357.568 506.123 359.504 505.232 361.971C504.341 364.404 503.896 367.162 503.896 370.246C503.896 375.077 504.958 379 507.082 382.015C509.241 384.996 512.427 386.487 516.642 386.487C519.794 386.487 522.193 385.767 523.837 384.328C525.482 382.889 526.715 380.833 527.538 378.161L541.825 381.142C540.249 387.035 537.268 391.575 532.883 394.761C528.497 397.948 523.083 399.541 516.642 399.541ZM552.002 397.999L552.105 323.99H566.29V369.218L585.101 342.493H602.37L582.326 370.246L603.706 397.999H585.512L566.29 371.274V397.999H552.002ZM615.913 422.669L626.603 393.271L626.809 401.905L602.653 342.493H617.146L633.387 384.534H630.098L646.236 342.493H660.216L628.865 422.669H615.913ZM715.98 399.541C710.498 399.541 705.547 398.582 701.127 396.663C696.741 394.71 693.126 391.935 690.282 388.337C687.473 384.705 685.691 380.388 684.937 375.385L699.534 373.227C700.561 377.476 702.686 380.748 705.907 383.043C709.127 385.339 712.793 386.487 716.905 386.487C719.201 386.487 721.428 386.127 723.586 385.407C725.745 384.688 727.51 383.626 728.88 382.221C730.285 380.816 730.987 379.086 730.987 377.03C730.987 376.276 730.867 375.557 730.628 374.871C730.422 374.152 730.062 373.484 729.548 372.867C729.034 372.25 728.298 371.668 727.338 371.12C726.413 370.571 725.231 370.075 723.792 369.629L704.57 363.976C703.131 363.565 701.452 362.982 699.534 362.228C697.649 361.475 695.816 360.395 694.034 358.99C692.253 357.586 690.762 355.735 689.563 353.44C688.398 351.11 687.815 348.18 687.815 344.651C687.815 339.683 689.066 335.554 691.567 332.265C694.069 328.976 697.409 326.526 701.589 324.915C705.769 323.305 710.395 322.517 715.466 322.551C720.571 322.62 725.128 323.494 729.137 325.172C733.146 326.851 736.504 329.301 739.211 332.522C741.917 335.708 743.87 339.614 745.07 344.24L729.959 346.81C729.411 344.411 728.4 342.39 726.927 340.745C725.454 339.101 723.689 337.85 721.633 336.993C719.612 336.137 717.488 335.674 715.26 335.606C713.068 335.537 710.995 335.846 709.042 336.531C707.123 337.182 705.547 338.141 704.313 339.409C703.114 340.677 702.514 342.184 702.514 343.932C702.514 345.542 703.011 346.861 704.005 347.889C704.999 348.883 706.249 349.688 707.757 350.305C709.264 350.921 710.806 351.435 712.382 351.847L725.231 355.341C727.15 355.855 729.274 356.541 731.604 357.397C733.934 358.219 736.161 359.384 738.285 360.892C740.444 362.365 742.209 364.318 743.579 366.751C744.984 369.184 745.686 372.267 745.686 376.002C745.686 379.977 744.847 383.454 743.168 386.435C741.523 389.382 739.296 391.832 736.487 393.785C733.677 395.704 730.491 397.143 726.927 398.102C723.398 399.061 719.749 399.541 715.98 399.541ZM784.222 399.541C778.706 399.541 774.097 398.256 770.397 395.686C766.696 393.117 763.904 389.622 762.019 385.202C760.169 380.782 759.244 375.797 759.244 370.246C759.244 364.695 760.169 359.71 762.019 355.29C763.87 350.87 766.594 347.375 770.191 344.805C773.789 342.236 778.226 340.951 783.503 340.951C788.813 340.951 793.439 342.219 797.379 344.754C801.32 347.289 804.369 350.767 806.528 355.187C808.72 359.573 809.817 364.592 809.817 370.246C809.817 375.797 808.738 380.782 806.579 385.202C804.455 389.622 801.474 393.117 797.636 395.686C793.799 398.256 789.327 399.541 784.222 399.541ZM756.88 422.669V342.493H769.215V380.525H770.962V422.669H756.88ZM781.961 387.104C784.976 387.104 787.443 386.35 789.362 384.842C791.28 383.335 792.702 381.313 793.627 378.778C794.553 376.208 795.015 373.364 795.015 370.246C795.015 367.162 794.535 364.353 793.576 361.817C792.617 359.247 791.126 357.209 789.105 355.701C787.117 354.159 784.565 353.388 781.447 353.388C778.534 353.388 776.17 354.091 774.354 355.496C772.573 356.9 771.271 358.87 770.448 361.406C769.626 363.941 769.215 366.888 769.215 370.246C769.215 373.604 769.626 376.55 770.448 379.086C771.271 381.621 772.607 383.592 774.457 384.996C776.342 386.401 778.843 387.104 781.961 387.104ZM822.154 334.783V322.449H836.134V334.783H822.154ZM822.154 397.999V342.493H836.134V397.999H822.154ZM889.368 397.999V371.788C889.368 370.52 889.3 368.91 889.163 366.957C889.026 364.969 888.597 362.982 887.878 360.995C887.158 359.008 885.976 357.346 884.332 356.01C882.721 354.673 880.426 354.005 877.445 354.005C876.246 354.005 874.961 354.194 873.59 354.57C872.22 354.947 870.935 355.684 869.736 356.78C868.536 357.843 867.543 359.419 866.755 361.509C866.001 363.599 865.624 366.374 865.624 369.835L857.606 366.032C857.606 361.646 858.497 357.534 860.279 353.697C862.061 349.859 864.733 346.758 868.296 344.394C871.894 342.03 876.417 340.848 881.865 340.848C886.216 340.848 889.762 341.585 892.504 343.058C895.245 344.531 897.369 346.399 898.877 348.66C900.418 350.921 901.515 353.286 902.166 355.753C902.817 358.185 903.211 360.412 903.348 362.434C903.485 364.455 903.553 365.929 903.553 366.854V397.999H889.368ZM851.439 397.999V342.493H863.876V360.892H865.624V397.999H851.439Z" fill="white"/>
</g>
<path d="M273.023 44.4755L313.209 55.7301L345.261 29.0066L346.976 70.7028L382.295 92.9319L343.17 107.446L332.946 147.905L307.051 115.178L265.41 117.957L288.533 83.219L273.023 44.4755Z" fill="#F3A318"/>
<path d="M338.648 103.39L330.596 135.247L310.207 109.479L277.423 111.668L295.629 84.3125L283.417 53.8094L315.058 62.6689L340.296 41.6298L341.644 74.4595L369.455 91.9599L338.648 103.39Z" fill="#FCC415"/>
<path d="M350.204 93.4547C347.577 91.0961 347.359 87.0569 349.718 84.4295L336.756 76.2719L335.673 49.8872L315.392 66.7964L289.964 59.6755L296.894 76.9827C299.509 75.5961 302.815 75.895 305.146 77.9875C308.13 80.6663 308.377 85.2589 305.699 88.2431C303.26 90.9597 299.24 91.3989 296.285 89.4387L294.178 92.6054C294.492 92.7307 294.793 92.9003 295.058 93.1383C296.251 94.2094 296.35 96.0483 295.279 97.2414C294.208 98.4346 292.369 98.5338 291.176 97.4627C291.125 97.4172 291.088 97.3619 291.042 97.3162L285.145 106.174L311.493 104.414L327.879 125.122L334.351 99.5209L350.36 93.5816C350.31 93.5362 350.255 93.5001 350.204 93.4547ZM340.323 81.8508C341.074 81.0144 342.359 80.9451 343.196 81.6959C344.032 82.4468 344.102 83.7322 343.351 84.5686C342.6 85.4051 341.314 85.4743 340.478 84.7235C339.642 83.9726 339.572 82.6872 340.323 81.8508ZM313.98 81.6263C313.658 81.9854 313.109 82.015 312.75 81.6926C312.391 81.3702 312.361 80.8213 312.684 80.4621C313.006 80.103 313.555 80.0734 313.914 80.3958C314.271 80.716 314.303 81.2671 313.98 81.6263ZM308.811 73.4683C307.954 74.4229 306.486 74.502 305.531 73.6452C304.576 72.7883 304.497 71.3199 305.354 70.3654C306.211 69.4108 307.679 69.3317 308.634 70.1886C309.589 71.0454 309.668 72.5138 308.811 73.4683ZM337.855 93.2992C337.427 93.7765 336.69 93.8162 336.213 93.3878C335.736 92.9593 335.696 92.2228 336.124 91.7456C336.553 91.2683 337.289 91.2286 337.767 91.657C338.244 92.0855 338.284 92.822 337.855 93.2992Z" fill="#F5E134"/>
<path d="M240.777 137.668L271.303 146.217L295.65 125.917L296.953 157.59L323.782 174.476L294.062 185.501L286.296 216.234L266.625 191.375L234.994 193.486L252.559 167.098L240.777 137.668Z" fill="#F3A318"/>
<path d="M290.623 182.417L284.507 206.616L269.019 187.042L244.116 188.705L257.945 167.925L248.669 144.755L272.704 151.484L291.875 135.503L292.899 160.441L314.024 173.734L290.623 182.417Z" fill="#FCC415"/>
<path d="M299.396 174.875C297.4 173.084 297.235 170.016 299.027 168.02L289.181 161.823L288.358 141.781L272.952 154.625L253.637 149.216L258.901 162.363C260.888 161.31 263.399 161.537 265.169 163.126C267.436 165.161 267.624 168.65 265.589 170.917C263.737 172.98 260.683 173.314 258.438 171.825L256.838 174.23C257.076 174.325 257.305 174.454 257.506 174.635C258.412 175.449 258.488 176.845 257.674 177.752C256.861 178.658 255.464 178.734 254.557 177.92C254.519 177.885 254.49 177.843 254.455 177.809L249.976 184.537L269.991 183.2L282.438 198.931L287.354 179.483L299.515 174.972C299.476 174.937 299.435 174.91 299.396 174.875ZM291.89 166.061C292.461 165.426 293.437 165.373 294.073 165.943C294.708 166.514 294.761 167.49 294.19 168.125C293.62 168.761 292.643 168.813 292.008 168.243C291.373 167.673 291.32 166.696 291.89 166.061ZM271.88 165.89C271.635 166.163 271.218 166.186 270.945 165.941C270.673 165.696 270.65 165.279 270.895 165.006C271.14 164.733 271.557 164.711 271.83 164.956C272.101 165.199 272.125 165.617 271.88 165.89ZM267.953 159.693C267.302 160.419 266.187 160.479 265.462 159.828C264.737 159.177 264.677 158.061 265.327 157.336C265.978 156.611 267.094 156.551 267.819 157.202C268.544 157.853 268.604 158.968 267.953 159.693ZM290.016 174.757C289.69 175.12 289.131 175.15 288.768 174.825C288.406 174.499 288.376 173.94 288.701 173.577C289.026 173.215 289.586 173.184 289.948 173.51C290.311 173.835 290.341 174.395 290.016 174.757Z" fill="#F5E134"/>
<path d="M273.023 693.376L313.209 682.122L345.261 708.845L346.976 667.149L382.295 644.92L343.17 630.406L332.946 589.947L307.051 622.674L265.41 619.894L288.533 654.633L273.023 693.376Z" fill="#F3A318"/>
<path d="M338.648 634.464L330.596 602.607L310.207 628.375L277.423 626.186L295.629 653.541L283.417 684.044L315.058 675.185L340.296 696.224L341.644 663.394L369.455 645.894L338.648 634.464Z" fill="#FCC415"/>
<path d="M350.204 644.397C347.577 646.756 347.359 650.795 349.718 653.422L336.756 661.58L335.673 687.964L315.392 671.055L289.964 678.176L296.894 660.869C299.509 662.255 302.815 661.957 305.146 659.864C308.13 657.185 308.377 652.593 305.699 649.608C303.26 646.892 299.24 646.453 296.285 648.413L294.178 645.246C294.492 645.121 294.793 644.951 295.058 644.713C296.251 643.642 296.35 641.803 295.279 640.61C294.208 639.417 292.369 639.318 291.176 640.389C291.125 640.434 291.088 640.49 291.042 640.535L285.145 631.678L311.493 633.438L327.879 612.729L334.351 638.331L350.36 644.27C350.31 644.315 350.255 644.351 350.204 644.397ZM340.323 656.001C341.074 656.837 342.359 656.906 343.196 656.156C344.032 655.405 344.102 654.119 343.351 653.283C342.6 652.447 341.314 652.377 340.478 653.128C339.642 653.879 339.572 655.164 340.323 656.001ZM313.98 656.225C313.658 655.866 313.109 655.837 312.75 656.159C312.391 656.481 312.361 657.03 312.684 657.389C313.006 657.749 313.555 657.778 313.914 657.456C314.271 657.136 314.303 656.584 313.98 656.225ZM308.811 664.383C307.954 663.429 306.486 663.35 305.531 664.206C304.576 665.063 304.497 666.532 305.354 667.486C306.211 668.441 307.679 668.52 308.634 667.663C309.589 666.806 309.668 665.338 308.811 664.383ZM337.855 644.552C337.427 644.075 336.69 644.035 336.213 644.464C335.736 644.892 335.696 645.629 336.124 646.106C336.553 646.583 337.289 646.623 337.767 646.195C338.244 645.766 338.284 645.03 337.855 644.552Z" fill="#F5E134"/>
<path d="M240.777 600.184L271.303 591.635L295.65 611.935L296.953 580.262L323.782 563.376L294.062 552.351L286.296 521.618L266.625 546.477L234.994 544.366L252.559 570.754L240.777 600.184Z" fill="#F3A318"/>
<path d="M290.623 555.437L284.507 531.238L269.019 550.812L244.116 549.149L257.945 569.929L248.669 593.099L272.704 586.369L291.875 602.351L292.899 577.413L314.024 564.119L290.623 555.437Z" fill="#FCC415"/>
<path d="M299.396 562.98C297.4 564.772 297.235 567.84 299.027 569.836L289.181 576.032L288.358 596.074L272.952 583.23L253.637 588.639L258.901 575.492C260.888 576.546 263.399 576.318 265.169 574.729C267.436 572.694 267.624 569.205 265.589 566.939C263.737 564.875 260.683 564.541 258.438 566.03L256.838 563.625C257.076 563.53 257.305 563.401 257.506 563.22C258.412 562.407 258.488 561.01 257.674 560.103C256.861 559.197 255.464 559.122 254.557 559.935C254.519 559.97 254.49 560.012 254.455 560.047L249.976 553.318L269.991 554.655L282.438 538.925L287.354 558.372L299.515 562.883C299.476 562.918 299.435 562.945 299.396 562.98ZM291.89 571.794C292.461 572.43 293.437 572.482 294.073 571.912C294.708 571.342 294.761 570.365 294.19 569.73C293.62 569.094 292.643 569.042 292.008 569.612C291.373 570.183 291.32 571.159 291.89 571.794ZM271.88 571.965C271.635 571.692 271.218 571.67 270.945 571.915C270.673 572.159 270.65 572.576 270.895 572.849C271.14 573.122 271.557 573.145 271.83 572.9C272.101 572.656 272.125 572.238 271.88 571.965ZM267.953 578.162C267.302 577.437 266.187 577.377 265.462 578.027C264.737 578.678 264.677 579.794 265.327 580.519C265.978 581.244 267.094 581.304 267.819 580.653C268.544 580.002 268.604 578.887 267.953 578.162ZM290.016 563.098C289.69 562.735 289.131 562.705 288.768 563.031C288.406 563.356 288.376 563.916 288.701 564.278C289.026 564.641 289.586 564.671 289.948 564.345C290.311 564.02 290.341 563.461 290.016 563.098Z" fill="#F5E134"/>
<path d="M999.84 44.4757L959.654 55.7304L927.603 29.0069L925.887 70.703L890.568 92.9321L929.693 107.446L939.917 147.905L965.812 115.178L1007.45 117.958L984.33 83.2193L999.84 44.4757Z" fill="#F3A318"/>
<path d="M934.215 103.39L942.267 135.247L962.656 109.479L995.44 111.668L977.234 84.3127L989.446 53.8097L957.805 62.6692L932.567 41.63L931.219 74.4598L903.409 91.9601L934.215 103.39Z" fill="#FCC415"/>
<path d="M922.663 93.4539C925.29 91.0953 925.508 87.0562 923.15 84.4288L936.111 76.2712L937.194 49.8865L957.475 66.7957L982.903 59.6748L975.974 76.9819C973.358 75.5954 970.052 75.8943 967.721 77.9867C964.737 80.6656 964.49 85.2582 967.169 88.2424C969.607 90.959 973.628 91.3982 976.582 89.438L978.689 92.6046C978.375 92.7299 978.075 92.8995 977.809 93.1375C976.616 94.2087 976.517 96.0475 977.588 97.2407C978.659 98.4339 980.498 98.533 981.691 97.4619C981.742 97.4165 981.779 97.3611 981.825 97.3155L987.722 106.173L961.374 104.413L944.988 125.122L938.516 99.5201L922.507 93.5809C922.558 93.5354 922.612 93.4994 922.663 93.4539ZM932.544 81.8501C931.793 81.0137 930.508 80.9444 929.671 81.6952C928.835 82.4461 928.766 83.7315 929.517 84.5679C930.267 85.4043 931.553 85.4736 932.389 84.7228C933.226 83.9719 933.295 82.6865 932.544 81.8501ZM958.887 81.6255C959.209 81.9847 959.758 82.0143 960.117 81.6919C960.476 81.3695 960.506 80.8205 960.184 80.4614C959.861 80.1022 959.312 80.0726 958.953 80.3951C958.596 80.7153 958.564 81.2664 958.887 81.6255ZM964.056 73.4676C964.913 74.4222 966.382 74.5013 967.336 73.6444C968.291 72.7875 968.37 71.3192 967.513 70.3646C966.656 69.4101 965.188 69.3309 964.233 70.1878C963.279 71.0447 963.2 72.5131 964.056 73.4676ZM935.012 93.2985C935.44 93.7758 936.177 93.8155 936.654 93.387C937.131 92.9586 937.171 92.2221 936.743 91.7448C936.314 91.2676 935.578 91.2279 935.101 91.6563C934.623 92.0848 934.584 92.8212 935.012 93.2985Z" fill="#F5E134"/>
<path d="M1032.08 137.668L1001.56 146.217L977.209 125.918L975.906 157.591L949.077 174.476L978.798 185.502L986.564 216.235L1006.23 191.375L1037.87 193.486L1020.3 167.098L1032.08 137.668Z" fill="#F3A318"/>
<path d="M982.236 182.417L988.353 206.616L1003.84 187.042L1028.74 188.705L1014.91 167.926L1024.19 144.755L1000.16 151.485L980.984 135.503L979.961 160.441L958.835 173.735L982.236 182.417Z" fill="#FCC415"/>
<path d="M973.459 174.875C975.455 173.083 975.62 170.015 973.829 168.019L983.675 161.823L984.497 141.781L999.903 154.625L1019.22 149.216L1013.95 162.363C1011.97 161.309 1009.46 161.537 1007.69 163.126C1005.42 165.161 1005.23 168.65 1007.27 170.916C1009.12 172.98 1012.17 173.314 1014.42 171.825L1016.02 174.23C1015.78 174.325 1015.55 174.454 1015.35 174.635C1014.44 175.448 1014.37 176.845 1015.18 177.752C1015.99 178.658 1017.39 178.733 1018.3 177.92C1018.34 177.885 1018.36 177.843 1018.4 177.808L1022.88 184.537L1002.86 183.2L990.418 198.93L985.502 179.483L973.341 174.972C973.379 174.937 973.421 174.91 973.459 174.875ZM980.965 166.061C980.395 165.425 979.418 165.373 978.783 165.943C978.148 166.513 978.095 167.49 978.665 168.125C979.236 168.76 980.212 168.813 980.847 168.243C981.483 167.672 981.535 166.696 980.965 166.061ZM1000.98 165.89C1001.22 166.163 1001.64 166.185 1001.91 165.94C1002.18 165.696 1002.21 165.279 1001.96 165.006C1001.72 164.733 1001.3 164.71 1001.03 164.955C1000.75 165.199 1000.73 165.617 1000.98 165.89ZM1004.9 159.693C1005.55 160.418 1006.67 160.478 1007.39 159.827C1008.12 159.177 1008.18 158.061 1007.53 157.336C1006.88 156.611 1005.76 156.551 1005.04 157.202C1004.31 157.853 1004.25 158.968 1004.9 159.693ZM982.84 174.757C983.165 175.12 983.725 175.15 984.087 174.824C984.45 174.499 984.48 173.939 984.154 173.577C983.829 173.214 983.27 173.184 982.907 173.51C982.544 173.835 982.514 174.394 982.84 174.757Z" fill="#F5E134"/>
<path d="M958.222 524.28L998.409 535.535L1030.46 508.811L1032.18 550.507L1067.49 572.737L1028.37 587.251L1018.15 627.71L992.25 594.983L950.609 597.762L973.732 563.024L958.222 524.28Z" fill="#F3A318"/>
<path d="M1023.85 583.195L1015.8 615.052L995.406 589.284L962.622 591.473L980.828 564.117L968.616 533.614L1000.26 542.474L1025.5 521.435L1026.84 554.264L1054.65 571.765L1023.85 583.195Z" fill="#FCC415"/>
<path d="M1035.4 573.259C1032.77 570.9 1032.55 566.861 1034.91 564.233L1021.95 556.076L1020.87 529.691L1000.59 546.6L975.16 539.479L982.089 556.787C984.705 555.4 988.01 555.699 990.341 557.791C993.325 560.47 993.573 565.063 990.894 568.047C988.455 570.764 984.435 571.203 981.48 569.243L979.373 572.409C979.687 572.535 979.988 572.704 980.253 572.942C981.446 574.013 981.545 575.852 980.474 577.045C979.403 578.239 977.564 578.338 976.371 577.267C976.32 577.221 976.283 577.166 976.237 577.12L970.34 585.978L996.688 584.218L1013.07 604.926L1019.55 579.325L1035.56 573.386C1035.5 573.34 1035.45 573.304 1035.4 573.259ZM1025.52 561.655C1026.27 560.818 1027.55 560.749 1028.39 561.5C1029.23 562.251 1029.3 563.536 1028.55 564.373C1027.8 565.209 1026.51 565.278 1025.67 564.527C1024.84 563.777 1024.77 562.491 1025.52 561.655ZM999.176 561.43C998.853 561.789 998.304 561.819 997.945 561.497C997.586 561.174 997.556 560.625 997.879 560.266C998.201 559.907 998.75 559.877 999.109 560.2C999.466 560.52 999.498 561.071 999.176 561.43ZM994.006 553.272C993.149 554.227 991.681 554.306 990.726 553.449C989.772 552.592 989.693 551.124 990.549 550.169C991.406 549.215 992.875 549.136 993.829 549.993C994.784 550.849 994.863 552.318 994.006 553.272ZM1023.05 573.103C1022.62 573.58 1021.89 573.62 1021.41 573.192C1020.93 572.763 1020.89 572.027 1021.32 571.55C1021.75 571.072 1022.48 571.033 1022.96 571.461C1023.44 571.889 1023.48 572.626 1023.05 573.103Z" fill="#F5E134"/>
<path d="M925.972 617.473L956.499 626.022L980.845 605.722L982.149 637.395L1008.98 654.281L979.257 665.306L971.491 696.039L951.821 671.179L920.189 673.291L937.754 646.903L925.972 617.473Z" fill="#F3A318"/>
<path d="M975.822 662.222L969.706 686.421L954.218 666.847L929.315 668.51L943.144 647.73L933.868 624.56L957.903 631.289L977.074 615.308L978.098 640.246L999.223 653.539L975.822 662.222Z" fill="#FCC415"/>
<path d="M984.595 654.68C982.6 652.889 982.434 649.82 984.226 647.825L974.38 641.628L973.557 621.586L958.152 634.43L938.836 629.021L944.1 642.168C946.087 641.115 948.598 641.342 950.368 642.931C952.635 644.966 952.823 648.455 950.788 650.721C948.936 652.785 945.882 653.119 943.638 651.63L942.037 654.035C942.276 654.13 942.504 654.259 942.705 654.44C943.612 655.254 943.687 656.65 942.873 657.557C942.06 658.463 940.663 658.538 939.757 657.725C939.718 657.69 939.69 657.648 939.655 657.614L935.175 664.342L955.19 663.005L967.637 678.735L972.553 659.288L984.714 654.777C984.675 654.742 984.634 654.715 984.595 654.68ZM977.09 645.866C977.66 645.23 978.636 645.178 979.272 645.748C979.907 646.319 979.96 647.295 979.389 647.93C978.819 648.566 977.843 648.618 977.207 648.048C976.572 647.478 976.519 646.501 977.09 645.866ZM957.079 645.695C956.834 645.968 956.417 645.991 956.145 645.746C955.872 645.501 955.849 645.084 956.094 644.811C956.339 644.538 956.756 644.516 957.029 644.761C957.3 645.004 957.324 645.422 957.079 645.695ZM953.152 639.498C952.501 640.223 951.386 640.284 950.661 639.633C949.936 638.982 949.876 637.866 950.527 637.141C951.178 636.416 952.293 636.356 953.018 637.007C953.743 637.658 953.803 638.773 953.152 639.498ZM975.215 654.562C974.889 654.925 974.33 654.955 973.967 654.629C973.605 654.304 973.575 653.745 973.9 653.382C974.226 653.019 974.785 652.989 975.148 653.315C975.51 653.64 975.54 654.2 975.215 654.562Z" fill="#F5E134"/>
<rect x="335.105" y="655.396" width="236.299" height="242.281" transform="rotate(126.24 335.105 655.396)" fill="url(#pattern1)"/>
<rect x="1024.6" y="616" width="236.299" height="242.281" transform="rotate(32.0527 1024.6 616)" fill="url(#pattern2)"/>
<path d="M722.21 687.787C771.69 695.951 805.201 742.707 797.036 792.187C788.872 841.666 742.116 875.177 692.637 867.013C643.157 858.848 609.642 812.116 617.811 762.613C625.979 713.109 672.707 679.618 722.21 687.787Z" fill="#53AE94"/>
<path d="M720.474 767.291L722.675 753.953L753.17 758.986L756.524 738.663L673.482 724.961L670.129 745.283L700.624 750.315L698.428 763.628C673.463 760.684 654.013 762.499 653.041 768.389C652.069 774.279 669.905 782.247 694.492 787.479L687.444 830.193L709.494 833.831L716.538 791.142C741.454 794.078 760.856 792.255 761.828 786.365C762.796 780.499 745.009 772.539 720.474 767.291ZM717.137 787.516C716.5 787.436 713.279 787.104 706.173 785.932C700.478 784.992 696.514 784.163 695.115 783.857L695.111 783.881C673.391 779.297 657.663 772.802 658.418 768.226C659.173 763.651 676.13 762.549 698.195 765.19L695.737 780.084C697.157 780.419 701.206 781.337 706.876 782.273C713.667 783.393 717.147 783.667 717.787 783.723L720.245 768.828C741.94 773.408 757.616 779.92 756.865 784.471C756.09 789.018 739.128 790.145 717.137 787.516Z" fill="white"/>
<path d="M1124.65 620.232C1147.08 575.38 1201.66 557.196 1246.51 579.629C1291.36 602.061 1309.55 656.636 1287.11 701.487C1264.68 746.339 1210.13 764.534 1165.25 742.091C1120.38 719.647 1102.21 665.105 1124.65 620.232Z" fill="#53AE94"/>
<path d="M1200.08 645.404L1187.99 639.358L1201.82 611.714L1183.4 602.501L1145.75 677.775L1164.17 686.989L1178 659.345L1190.06 665.381C1179.87 688.359 1175.85 707.476 1181.19 710.146C1186.53 712.816 1199.42 698.135 1211.69 676.195L1250.4 695.56L1260.4 675.572L1221.7 656.218C1231.88 633.285 1235.87 614.212 1230.53 611.541C1225.22 608.882 1212.35 623.519 1200.08 645.404ZM1218.42 654.574C1218.15 655.158 1216.88 658.137 1213.66 664.579C1211.08 669.741 1209.12 673.282 1208.41 674.529L1208.43 674.54C1197.63 693.932 1186.77 707.036 1182.62 704.961C1178.48 702.887 1182.44 686.362 1191.49 666.065L1204.99 672.818C1205.73 671.561 1207.8 667.965 1210.37 662.824C1213.45 656.669 1214.74 653.426 1214.99 652.83L1201.48 646.077C1212.28 626.707 1223.13 613.658 1227.26 615.722C1231.37 617.807 1227.43 634.343 1218.42 654.574Z" fill="white"/>
<path d="M257.361 718.211C301.168 693.8 356.499 709.532 380.91 753.339C405.321 797.145 389.589 852.477 345.783 876.887C301.977 901.298 246.657 885.588 222.234 841.76C197.811 797.932 213.534 742.634 257.361 718.211Z" fill="#53AE94"/>
<path d="M305.491 781.515L298.911 769.707L325.91 754.662L315.884 736.669L242.364 777.638L252.39 795.63L279.389 780.585L285.957 792.372C264.586 805.608 250.494 819.136 253.399 824.351C256.305 829.565 275.224 824.699 297.724 813.488L318.797 851.304L338.319 840.426L317.258 802.631C338.586 789.419 352.635 775.915 349.729 770.7C346.835 765.507 327.959 770.35 305.491 781.515ZM315.469 799.421C314.921 799.754 312.194 801.5 305.902 805.006C300.86 807.816 297.242 809.634 295.956 810.266L295.968 810.287C276.117 820.22 259.764 824.927 257.506 820.876C255.249 816.825 267.834 805.407 286.747 793.739L294.095 806.926C295.414 806.304 299.155 804.502 304.175 801.704C310.187 798.354 313.081 796.403 313.617 796.047L306.269 782.86C326.099 772.94 342.421 768.278 344.666 772.307C346.89 776.348 334.317 787.788 315.469 799.421Z" fill="white"/>
<g clip-path="url(#clip0_1766_19563)">
<path d="M148.183 168.09C126.544 151.359 132.858 120.901 138.72 107.763C139.093 105.056 137.183 103.668 126.561 119.78C113.283 139.92 128.258 168.978 147.747 187.451C167.236 205.923 208.387 193.758 219.321 182.783C200.643 193.584 175.231 189.004 148.183 168.09Z" fill="#0E9953"/>
<path d="M132.806 127.134C131.324 102.734 155.424 85.697 167.659 80.2282C208.333 65.5142 234.838 98.7059 239.002 103.609C243.167 108.512 266.23 169.946 214.319 185.342C162.408 200.739 134.657 157.633 132.806 127.134Z" fill="#0E9953"/>
<path d="M243.4 107.806C243.324 107.664 243.237 107.545 243.161 107.403C243.134 107.336 243.118 107.247 243.068 107.171C224.701 74.9109 182.24 65.289 153.896 85.2921C153.482 85.3627 153.065 85.5692 152.669 85.9215C151.951 86.5762 151.2 87.2443 150.473 87.9223C148.988 89.1556 147.562 90.4418 146.167 91.8506C136.867 100.485 127.857 109.983 123.595 121.972C116.849 140.945 120.934 162.669 134.245 177.732C160.575 207.513 211.751 206.659 235.879 174.237C236.015 174.047 236.117 173.871 236.196 173.686C251.723 156.425 253.579 128.478 243.4 107.806ZM162.87 190.238C165.384 188.84 167.922 187.451 170.437 186.053C170.688 185.913 170.834 185.701 170.9 185.482C174.733 187.034 178.734 188.191 182.785 189.039C180.383 190.431 177.981 191.822 175.579 193.214C171.263 192.664 166.991 191.693 162.87 190.238ZM184.955 189.992C185.14 189.879 185.256 189.736 185.302 189.564C192.412 190.756 199.733 190.748 206.94 189.402C198.034 192.934 188.331 194.286 178.797 193.57C180.849 192.359 182.913 191.18 184.955 189.992ZM185.408 79.8425C207.065 79.2495 227.558 91.6097 238.297 110.132C251.933 138.124 241.387 175.267 208.984 183C176.036 190.856 137.329 169.275 135.633 133.336C134.928 118.405 141.306 104.408 151.587 94.4361C152.477 93.6351 153.343 92.8242 154.233 92.0233C162.836 84.7665 173.71 80.1526 185.408 79.8425ZM126.045 139.624C127.345 138.696 128.669 137.778 129.969 136.85C130.24 138.914 130.643 140.925 131.169 142.906C129.511 143.709 127.886 144.498 126.228 145.301C126.047 143.412 126.002 141.526 126.045 139.624ZM130.879 119.287C129.668 124.507 129.31 129.652 129.724 134.659C128.51 135.514 127.329 136.356 126.115 137.21C126.58 131.041 128.145 124.928 130.879 119.287ZM153.851 186.256C156.045 184.968 158.262 183.69 160.455 182.401C161.514 181.782 160.383 180.257 159.324 180.876C156.846 182.317 154.391 183.769 151.923 185.187C146.041 181.691 140.727 177.119 136.356 171.495C130.87 164.435 127.551 156.021 126.417 147.303C128.15 146.45 129.874 145.62 131.632 144.778C136.876 162.302 151.362 176.988 169.021 184.681C166.189 186.246 163.323 187.824 160.491 189.389C158.245 188.486 156.002 187.447 153.851 186.256Z" fill="#07080E"/>
<g filter="url(#filter5_d_1766_19563)">
<path d="M227.711 152.137C227.35 152.983 226.858 153.978 226.234 155.121C225.649 156.28 224.979 157.426 224.223 158.558C223.506 159.707 222.726 160.738 221.882 161.651C221.038 162.563 220.197 163.205 219.358 163.574C219.012 163.745 218.147 163.694 216.764 163.422C215.434 163.128 213.828 162.739 211.944 162.254C210.115 161.747 208.151 161.182 206.053 160.56C203.955 159.938 201.961 159.338 200.072 158.76C198.237 158.16 196.641 157.638 195.284 157.196C193.928 156.754 193.076 156.459 192.73 156.312L187.153 168.114C185.928 167.683 184.746 167.202 183.609 166.671C182.488 166.103 181.331 165.564 180.139 165.056C179.37 164.728 178.593 164.419 177.807 164.13C177.022 163.84 176.228 163.57 175.426 163.319C176.967 159.704 178.492 156.127 180.001 152.589C181.509 149.051 182.957 145.441 184.345 141.76C185.623 138.442 186.893 135.143 188.155 131.864C189.455 128.6 190.764 125.318 192.081 122.016C196.157 123.436 200.277 124.806 204.44 126.126C208.659 127.425 212.768 128.927 216.768 130.632C217.46 130.927 218.523 131.472 219.958 132.265C221.408 133.02 222.895 133.904 224.418 134.916C225.957 135.891 227.328 136.884 228.532 137.898C229.775 138.928 230.512 139.81 230.744 140.545C230.904 141.022 230.867 141.802 230.633 142.884C230.438 143.982 230.152 145.133 229.775 146.336C229.415 147.5 229.024 148.629 228.604 149.722C228.222 150.832 227.924 151.637 227.711 152.137ZM211.73 144.846C211.878 144.5 212.047 144.05 212.238 143.495C212.429 142.94 212.574 142.388 212.672 141.839C212.824 141.268 212.895 140.73 212.883 140.225C212.887 139.681 212.777 139.248 212.551 138.924C212.408 138.727 212.141 138.5 211.751 138.242C211.361 137.985 210.943 137.739 210.498 137.503C210.053 137.268 209.619 137.06 209.196 136.88C208.789 136.661 208.489 136.511 208.297 136.429C206.874 135.822 205.418 135.292 203.93 134.84C202.441 134.387 200.917 133.964 199.357 133.572C198.981 134.775 198.555 135.934 198.079 137.049C197.642 138.181 197.186 139.304 196.71 140.42C195.94 142.227 195.219 144.079 194.547 145.974C195.047 146.187 195.92 146.537 197.167 147.023C198.431 147.471 199.76 147.924 201.155 148.382C202.567 148.802 203.918 149.151 205.209 149.429C206.516 149.668 207.471 149.666 208.074 149.423C209.045 149.065 209.785 148.449 210.294 147.575C210.858 146.679 211.337 145.769 211.73 144.846Z" fill="white"/>
</g>
<g filter="url(#filter6_d_1766_19563)">
<path d="M215.004 111.048C210.485 113.439 205.993 115.819 201.529 118.188C197.12 120.535 192.603 122.813 187.98 125.023C188.647 129.535 189.454 134.037 190.401 138.532C190.922 140.935 191.489 143.336 192.103 145.734C192.733 148.093 193.375 150.48 194.027 152.894L179.293 147.158C178.958 144.424 178.561 141.732 178.1 139.082C177.656 136.393 177.266 133.681 176.932 130.948C174.552 132.479 172.23 134.034 169.966 135.614C167.718 137.155 165.465 138.762 163.206 140.435C162.426 139.921 161.601 139.456 160.733 139.04C159.849 138.663 158.964 138.286 158.08 137.909C156.618 137.286 155.129 136.674 153.613 136.073C152.119 135.527 150.625 134.98 149.13 134.434L172.558 121.38C172.296 119.541 172.027 117.722 171.749 115.922C171.509 114.138 171.251 112.346 170.973 110.546C170.401 107.303 169.756 104.073 169.036 100.857C168.371 97.6197 167.706 94.382 167.042 91.1444C169.745 92.4788 172.435 93.7391 175.11 94.9253C177.786 96.1116 180.456 97.3637 183.121 98.6817C183.439 101.135 183.803 103.586 184.214 106.033C184.68 108.459 185.118 110.895 185.529 113.343C187.821 111.911 190.085 110.491 192.322 109.081C194.614 107.65 196.846 106.147 199.017 104.573C199.946 105.059 200.871 105.5 201.794 105.893C202.772 106.265 203.742 106.655 204.703 107.065C208.049 108.492 211.483 109.819 215.004 111.048Z" fill="white"/>
</g>
<circle cx="187.872" cy="131.847" r="51.7826" transform="rotate(23.0909 187.872 131.847)" fill="#07D170"/>
<path d="M176.213 99.6156L178.597 119.469L194.573 107.443L209.517 113.814L182.726 132.667L187.406 164.096L172.463 157.725L170.345 138.825L155.242 150.382L140.227 143.981L166.145 125.598L161.199 93.214L176.213 99.6156Z" fill="#006B38"/>
<path d="M181.587 161.615L203.128 111.091L224.904 120.375C227.371 121.426 229.435 122.895 231.098 124.782C232.761 126.668 233.987 128.788 234.777 131.144C235.587 133.451 235.95 135.821 235.867 138.252C235.831 140.703 235.358 142.996 234.448 145.131C233.173 148.12 231.258 150.639 228.702 152.689C226.194 154.759 223.318 156.112 220.076 156.748C216.901 157.357 213.653 156.953 210.332 155.537L202.078 152.018L195.464 167.531L181.587 161.615ZM207.235 139.921L214.565 143.046C215.134 143.288 215.751 143.355 216.414 143.245C217.078 143.136 217.747 142.748 218.423 142.084C219.147 141.439 219.791 140.452 220.358 139.124C220.964 137.701 221.216 136.519 221.113 135.578C221.077 134.609 220.812 133.851 220.316 133.304C219.889 132.729 219.39 132.32 218.821 132.078L211.847 129.104L207.235 139.921Z" fill="white"/>
</g>
<g clip-path="url(#clip1_1766_19563)">
<path d="M386.153 729.926C356.124 733.632 337.365 704.785 331.74 689.899C329.924 687.481 327.342 687.879 331.544 708.809C336.796 734.972 371.191 746.139 400.888 745.476C430.585 744.813 453.442 703.209 453.485 686.071C447.222 709.102 423.691 725.294 386.153 729.926Z" fill="#0E9953"/>
<path d="M342.177 709.722C322.012 691.706 327.678 659.553 333.031 645.729C353.529 602.493 400.2 607.93 407.29 608.539C414.38 609.148 480.342 639.454 451.548 691.976C422.753 744.497 367.383 732.242 342.177 709.722Z" fill="#0E9953"/>
<path d="M414.059 608.432C413.888 608.38 413.727 608.353 413.556 608.301C413.484 608.269 413.401 608.212 413.303 608.191C373.751 597.149 332.897 622.657 326.207 660.444C325.936 660.822 325.77 661.309 325.732 661.895C325.678 662.968 325.609 664.078 325.565 665.177C325.359 667.302 325.241 669.423 325.241 671.616C324.659 685.642 324.977 700.121 330.965 712.86C340.44 733.019 360.567 746.906 382.755 748.374C426.633 751.267 466.175 710.743 459.882 666.48C459.841 666.226 459.785 666.008 459.702 665.8C458.459 640.148 438.154 616.746 414.059 608.432ZM414.983 735.908C415.87 732.851 416.783 729.784 417.669 726.727C417.758 726.421 417.707 726.141 417.588 725.918C421.808 724.152 425.853 721.945 429.696 719.457C428.892 722.421 428.089 725.385 427.285 728.348C423.467 731.277 419.354 733.842 414.983 735.908ZM432.143 718.516C432.2 718.283 432.18 718.08 432.082 717.909C438.597 713.308 444.343 707.601 448.956 700.931C444.71 710.641 438.14 719.26 430.092 726.122C430.76 723.573 431.464 721.039 432.143 718.516ZM346.72 631.623C363.273 614.292 388.999 608.044 411.861 614.233C444.373 625.606 465.012 663.001 445.576 694.309C425.808 726.14 378.593 739.328 349.272 712.413C337.09 701.231 331.202 685.268 331.513 669.427C331.589 668.104 331.638 666.793 331.713 665.471C332.821 653.07 337.771 640.977 346.72 631.623ZM346.636 724.819C346.935 723.078 347.259 721.326 347.558 719.584C349.379 720.995 351.262 722.261 353.217 723.408C352.54 725.33 351.878 727.215 351.201 729.137C349.588 727.794 348.083 726.348 346.636 724.819ZM334.596 705.077C337.71 710.122 341.436 714.442 345.66 718.054C345.372 719.671 345.1 721.252 344.811 722.869C340.372 717.659 336.841 711.638 334.596 705.077ZM404.797 739.802C405.517 737.082 406.263 734.351 406.984 731.631C407.333 730.32 405.257 730.003 404.907 731.313C404.083 734.376 403.284 737.428 402.449 740.464C395.105 742.298 387.371 742.844 379.556 741.83C369.748 740.555 360.588 736.529 352.908 730.563C353.606 728.543 354.314 726.549 355.038 724.518C372.807 734.202 395.624 734.459 415.488 726.751C414.482 730.186 413.46 733.658 412.453 737.093C409.985 738.133 407.414 739.063 404.797 739.802Z" fill="#07080E"/>
<g filter="url(#filter7_d_1766_19563)">
<path d="M436.209 655.46C436.585 656.405 436.973 657.57 437.373 658.954C437.816 660.32 438.182 661.743 438.47 663.221C438.801 664.681 438.991 666.099 439.039 667.473C439.087 668.847 438.925 670.006 438.553 670.95C438.415 671.353 437.696 671.987 436.397 672.851C435.124 673.655 433.559 674.6 431.701 675.686C429.869 676.712 427.887 677.798 425.754 678.943C423.621 680.089 421.587 681.17 419.652 682.187C417.743 683.144 416.084 683.977 414.673 684.687C413.263 685.396 412.364 685.827 411.978 685.981L416.787 699.597C415.488 700.212 414.186 700.754 412.879 701.223C411.556 701.649 410.228 702.127 408.895 702.656C408.035 702.997 407.184 703.36 406.342 703.744C405.499 704.129 404.665 704.534 403.839 704.962C402.235 700.921 400.648 696.924 399.077 692.969C397.507 689.014 395.834 685.051 394.058 681.079C392.478 677.476 390.907 673.895 389.344 670.336C387.825 666.759 386.297 663.161 384.76 659.542C389.068 657.483 393.372 655.351 397.671 653.146C401.997 650.881 406.395 648.861 410.865 647.086C411.639 646.779 412.898 646.379 414.643 645.885C416.37 645.348 418.227 644.885 420.212 644.495C422.179 644.062 424.031 643.775 425.766 643.633C427.544 643.474 428.811 643.593 429.565 643.99C430.063 644.241 430.641 644.882 431.3 645.914C432.001 646.929 432.673 648.056 433.314 649.295C433.937 650.49 434.51 651.681 435.031 652.867C435.595 654.037 435.987 654.901 436.209 655.46ZM417.977 662.177C417.823 661.79 417.605 661.304 417.323 660.719C417.041 660.135 416.725 659.588 416.374 659.081C416.049 658.513 415.686 658.036 415.283 657.648C414.863 657.218 414.439 656.963 414.009 656.885C413.743 656.841 413.357 656.87 412.85 656.972C412.343 657.074 411.823 657.206 411.29 657.367C410.757 657.529 410.254 657.704 409.781 657.892C409.292 658.037 408.939 658.152 408.724 658.237C407.134 658.868 405.578 659.586 404.055 660.389C402.533 661.193 401.007 662.048 399.476 662.954C400.117 664.193 400.685 665.435 401.18 666.681C401.718 667.911 402.234 669.149 402.729 670.396C403.531 672.416 404.406 674.432 405.354 676.444C405.913 676.222 406.872 675.817 408.23 675.227C409.572 674.595 410.969 673.916 412.422 673.19C413.858 672.421 415.192 671.642 416.422 670.855C417.635 670.025 418.384 669.28 418.669 668.62C419.152 667.582 419.254 666.521 418.973 665.438C418.718 664.296 418.386 663.208 417.977 662.177Z" fill="white"/>
</g>
<g filter="url(#filter8_d_1766_19563)">
<path d="M394.234 633.073C392.546 638.471 390.87 643.839 389.208 649.176C387.571 654.454 385.797 659.761 383.886 665.098C387.923 668.123 392.064 671.032 396.308 673.825C398.589 675.308 400.904 676.753 403.254 678.159C405.586 679.521 407.949 680.897 410.341 682.286L394.298 689.253C391.907 687.366 389.498 685.561 387.072 683.837C384.629 682.07 382.211 680.244 379.82 678.357C379.142 681.412 378.529 684.443 377.981 687.447C377.415 690.409 376.896 693.426 376.425 696.499C375.411 696.703 374.401 696.979 373.395 697.329C372.407 697.722 371.418 698.114 370.429 698.507C368.796 699.155 367.149 699.834 365.49 700.542C363.891 701.277 362.292 702.012 360.692 702.746L368.932 674.245C367.295 673.005 365.666 671.785 364.046 670.587C362.469 669.372 360.87 668.166 359.25 666.968C356.275 664.865 353.253 662.831 350.184 660.865C347.14 658.839 344.096 656.813 341.052 654.787C344.216 653.73 347.31 652.626 350.336 651.474C353.362 650.322 356.435 649.226 359.555 648.186C361.715 649.867 363.91 651.508 366.139 653.111C368.393 654.654 370.635 656.227 372.864 657.83C373.55 654.921 374.223 652.041 374.883 649.192C375.569 646.282 376.151 643.363 376.631 640.436C377.74 640.095 378.81 639.72 379.842 639.31C380.899 638.841 381.965 638.393 383.04 637.966C386.78 636.481 390.511 634.85 394.234 633.073Z" fill="white"/>
</g>
<circle cx="389.113" cy="670.543" r="57.2825" transform="rotate(-21.6561 389.113 670.543)" fill="#07D170"/>
<path d="M354.574 653.599L371.908 667.341L375.094 645.451L391.796 638.82L385.429 674.494L413.582 695.542L396.88 702.174L380.498 688.974L377.632 709.816L360.851 716.479L366.897 681.853L337.792 660.263L354.574 653.599Z" fill="#006B38"/>
<path d="M407.078 698.124L384.656 641.655L408.994 631.991C411.751 630.896 414.517 630.443 417.292 630.63C420.068 630.817 422.683 631.528 425.137 632.763C427.571 633.945 429.701 635.524 431.529 637.499C433.41 639.453 434.824 641.623 435.771 644.009C437.098 647.35 437.555 650.82 437.143 654.421C436.785 658.001 435.579 661.303 433.527 664.328C431.507 667.278 428.641 669.491 424.929 670.964L415.703 674.628L422.587 691.966L407.078 698.124ZM410.334 661.107L418.526 657.854C419.163 657.601 419.699 657.174 420.135 656.571C420.571 655.968 420.795 655.142 420.808 654.094C420.875 653.024 420.613 651.747 420.024 650.262C419.392 648.671 418.669 647.546 417.855 646.888C417.073 646.155 416.274 645.766 415.459 645.721C414.675 645.603 413.965 645.67 413.329 645.923L405.534 649.017L410.334 661.107Z" fill="white"/>
</g>
<g clip-path="url(#clip2_1766_19563)">
<path d="M1198.73 475.57C1157.95 480.604 1132.47 441.424 1124.83 421.206C1122.36 417.922 1118.86 418.461 1124.56 446.889C1131.7 482.423 1178.41 497.591 1218.75 496.69C1259.08 495.789 1290.13 439.283 1290.18 416.007C1281.68 447.288 1249.72 469.279 1198.73 475.57Z" fill="#0E9953"/>
<path d="M1139 448.129C1111.62 423.66 1119.31 379.99 1126.58 361.213C1154.42 302.491 1217.81 309.876 1227.44 310.703C1237.07 311.53 1326.66 352.691 1287.55 424.026C1248.44 495.361 1173.24 478.716 1139 448.129Z" fill="#0E9953"/>
<path d="M1236.06 311.077C1235.83 311.006 1235.61 310.97 1235.38 310.899C1235.28 310.856 1235.17 310.779 1235.03 310.75C1181.32 295.753 1125.83 330.397 1116.74 381.72C1116.37 382.233 1116.15 382.895 1116.1 383.69C1116.02 385.148 1115.93 386.655 1115.87 388.148C1115.59 391.035 1115.43 393.915 1115.43 396.894C1114.64 415.943 1115.07 435.609 1123.2 452.91C1136.07 480.291 1163.41 499.152 1193.54 501.146C1253.14 505.075 1306.85 450.036 1298.3 389.918C1298.24 389.573 1298.17 389.276 1298.05 388.994C1296.37 354.154 1268.79 322.369 1236.06 311.077ZM1237.32 484.214C1238.52 480.062 1239.76 475.897 1240.97 471.745C1241.09 471.33 1241.02 470.949 1240.85 470.646C1246.59 468.248 1252.08 465.25 1257.3 461.871C1256.21 465.897 1255.12 469.922 1254.03 473.947C1248.84 477.925 1243.25 481.408 1237.32 484.214ZM1260.62 460.593C1260.7 460.276 1260.67 460.001 1260.54 459.768C1269.39 453.52 1277.19 445.768 1283.46 436.709C1277.69 449.897 1268.77 461.604 1257.84 470.923C1258.75 467.461 1259.7 464.02 1260.62 460.593ZM1144.6 342.576C1167.09 319.036 1202.03 310.55 1233.08 318.956C1277.23 334.403 1305.27 385.192 1278.87 427.715C1252.02 470.948 1187.89 488.859 1148.07 452.303C1131.52 437.117 1123.53 415.435 1123.95 393.92C1124.05 392.124 1124.12 390.342 1124.22 388.547C1125.72 371.704 1132.45 355.279 1144.6 342.576ZM1144.49 469.154C1144.89 466.788 1145.33 464.409 1145.74 462.044C1148.21 463.96 1150.77 465.679 1153.43 467.237C1152.51 469.847 1151.61 472.408 1150.69 475.018C1148.5 473.195 1146.45 471.23 1144.49 469.154ZM1128.14 442.34C1132.36 449.192 1137.42 455.06 1143.16 459.965C1142.77 462.162 1142.4 464.309 1142.01 466.505C1135.98 459.429 1131.19 451.252 1128.14 442.34ZM1223.48 489.503C1224.46 485.809 1225.47 482.1 1226.45 478.406C1226.93 476.625 1224.11 476.194 1223.63 477.974C1222.51 482.133 1221.43 486.279 1220.29 490.402C1210.32 492.893 1199.81 493.636 1189.2 492.258C1175.88 490.527 1163.44 485.059 1153.01 476.955C1153.95 474.211 1154.92 471.503 1155.9 468.745C1180.03 481.898 1211.02 482.246 1238 471.778C1236.64 476.444 1235.25 481.158 1233.88 485.824C1230.53 487.236 1227.04 488.5 1223.48 489.503Z" fill="#07080E"/>
<g filter="url(#filter9_d_1766_19563)">
<path d="M1266.72 374.43C1267.23 375.714 1267.76 377.296 1268.3 379.176C1268.91 381.032 1269.4 382.964 1269.79 384.971C1270.24 386.955 1270.5 388.88 1270.57 390.747C1270.63 392.613 1270.41 394.187 1269.91 395.469C1269.72 396.017 1268.74 396.878 1266.98 398.051C1265.25 399.143 1263.12 400.427 1260.6 401.902C1258.11 403.295 1255.42 404.77 1252.52 406.326C1249.63 407.881 1246.86 409.35 1244.24 410.731C1241.64 412.031 1239.39 413.163 1237.47 414.126C1235.56 415.089 1234.34 415.675 1233.81 415.884L1240.34 434.377C1238.58 435.212 1236.81 435.949 1235.04 436.586C1233.24 437.164 1231.43 437.813 1229.63 438.532C1228.46 438.995 1227.3 439.488 1226.16 440.01C1225.01 440.532 1223.88 441.083 1222.76 441.664C1220.58 436.176 1218.42 430.746 1216.29 425.375C1214.16 420.004 1211.89 414.621 1209.47 409.226C1207.33 404.333 1205.19 399.469 1203.07 394.635C1201.01 389.777 1198.93 384.89 1196.84 379.974C1202.7 377.178 1208.54 374.282 1214.38 371.288C1220.26 368.212 1226.23 365.468 1232.3 363.057C1233.35 362.64 1235.06 362.096 1237.43 361.426C1239.78 360.697 1242.3 360.067 1245 359.538C1247.67 358.95 1250.18 358.559 1252.54 358.367C1254.95 358.152 1256.67 358.313 1257.7 358.853C1258.38 359.193 1259.16 360.064 1260.05 361.466C1261.01 362.844 1261.92 364.375 1262.79 366.057C1263.64 367.68 1264.42 369.298 1265.12 370.909C1265.89 372.497 1266.42 373.671 1266.72 374.43ZM1241.96 383.553C1241.75 383.028 1241.46 382.368 1241.07 381.574C1240.69 380.779 1240.26 380.038 1239.78 379.348C1239.34 378.577 1238.85 377.929 1238.3 377.402C1237.73 376.818 1237.15 376.472 1236.57 376.366C1236.21 376.306 1235.69 376.346 1235 376.484C1234.31 376.622 1233.6 376.801 1232.88 377.021C1232.15 377.241 1231.47 377.478 1230.83 377.733C1230.16 377.93 1229.69 378.086 1229.39 378.202C1227.23 379.06 1225.12 380.034 1223.05 381.126C1220.98 382.217 1218.91 383.378 1216.83 384.609C1217.7 386.291 1218.47 387.978 1219.15 389.672C1219.88 391.341 1220.58 393.023 1221.25 394.716C1222.34 397.46 1223.53 400.198 1224.82 402.931C1225.58 402.63 1226.88 402.079 1228.72 401.279C1230.54 400.42 1232.44 399.498 1234.42 398.511C1236.37 397.466 1238.18 396.409 1239.85 395.34C1241.5 394.213 1242.51 393.201 1242.9 392.304C1243.56 390.894 1243.69 389.454 1243.31 387.983C1242.97 386.431 1242.52 384.954 1241.96 383.553Z" fill="white"/>
</g>
<g filter="url(#filter10_d_1766_19563)">
<path d="M1209.71 344.025C1207.42 351.356 1205.14 358.646 1202.88 365.896C1200.66 373.064 1198.25 380.272 1195.65 387.521C1201.14 391.629 1206.76 395.58 1212.53 399.374C1215.62 401.388 1218.77 403.35 1221.96 405.26C1225.13 407.111 1228.34 408.979 1231.59 410.866L1209.8 420.329C1206.55 417.766 1203.28 415.314 1199.98 412.972C1196.66 410.573 1193.38 408.092 1190.13 405.529C1189.21 409.679 1188.38 413.795 1187.63 417.875C1186.86 421.898 1186.16 425.996 1185.52 430.17C1184.14 430.447 1182.77 430.822 1181.41 431.297C1180.06 431.83 1178.72 432.363 1177.38 432.896C1175.16 433.777 1172.92 434.699 1170.67 435.661C1168.5 436.659 1166.32 437.657 1164.15 438.654L1175.34 399.945C1173.12 398.26 1170.91 396.603 1168.71 394.976C1166.57 393.326 1164.39 391.688 1162.19 390.061C1158.15 387.204 1154.05 384.441 1149.88 381.771C1145.75 379.02 1141.61 376.268 1137.48 373.516C1141.77 372.081 1145.98 370.581 1150.09 369.017C1154.2 367.452 1158.37 365.964 1162.61 364.552C1165.54 366.834 1168.52 369.063 1171.55 371.241C1174.61 373.336 1177.66 375.473 1180.68 377.65C1181.62 373.698 1182.53 369.787 1183.43 365.917C1184.36 361.965 1185.15 358.001 1185.8 354.025C1187.31 353.562 1188.76 353.053 1190.16 352.496C1191.6 351.858 1193.05 351.25 1194.5 350.67C1199.58 348.653 1204.65 346.438 1209.71 344.025Z" fill="white"/>
</g>
<circle cx="1202.76" cy="394.917" r="77.8009" transform="rotate(-21.6561 1202.76 394.917)" fill="#07D170"/>
<path d="M1155.97 372.223L1179.52 390.887L1183.84 361.157L1206.53 352.15L1197.88 400.603L1236.12 429.19L1213.43 438.197L1191.18 420.27L1187.29 448.577L1164.5 457.627L1172.71 410.597L1133.18 381.273L1155.97 372.223Z" fill="#006B38"/>
<path d="M1227.28 432.697L1196.83 356L1229.89 342.875C1233.63 341.388 1237.39 340.772 1241.16 341.026C1244.93 341.28 1248.48 342.246 1251.81 343.924C1255.12 345.529 1258.01 347.673 1260.49 350.356C1263.05 353.01 1264.97 355.957 1266.26 359.198C1268.06 363.735 1268.68 368.449 1268.12 373.34C1267.63 378.202 1265.99 382.687 1263.21 386.795C1260.46 390.802 1256.57 393.807 1251.53 395.809L1239 400.784L1248.35 424.333L1227.28 432.697ZM1231.71 382.42L1242.83 378.002C1243.7 377.659 1244.43 377.078 1245.02 376.259C1245.61 375.441 1245.91 374.319 1245.93 372.895C1246.02 371.442 1245.67 369.707 1244.87 367.691C1244.01 365.53 1243.03 364.002 1241.92 363.108C1240.86 362.112 1239.77 361.584 1238.67 361.524C1237.6 361.363 1236.64 361.454 1235.77 361.797L1225.19 366L1231.71 382.42Z" fill="white"/>
</g>
<g clip-path="url(#clip3_1766_19563)">
<path d="M1023.41 163.687C997.713 166.858 981.663 142.177 976.85 129.44C975.297 127.371 973.088 127.711 976.683 145.619C981.177 168.004 1010.6 177.559 1036.01 176.991C1061.42 176.424 1080.98 140.827 1081.01 126.165C1075.66 145.87 1055.52 159.723 1023.41 163.687Z" fill="#0E9953"/>
<path d="M985.78 146.4C968.527 130.986 973.374 103.476 977.955 91.6481C995.492 54.6564 1035.42 59.3082 1041.49 59.8292C1047.56 60.3502 1103.99 86.2796 1079.36 131.217C1054.72 176.154 1007.35 165.668 985.78 146.4Z" fill="#0E9953"/>
<path d="M1047.26 59.7298C1047.12 59.6849 1046.98 59.6623 1046.83 59.6175C1046.77 59.5907 1046.7 59.5417 1046.62 59.5237C1012.78 50.0763 977.822 71.9002 972.097 104.231C971.866 104.554 971.723 104.971 971.691 105.472C971.645 106.39 971.585 107.34 971.548 108.28C971.372 110.099 971.27 111.913 971.271 113.79C970.773 125.79 971.045 138.178 976.168 149.077C984.275 166.325 1001.5 178.207 1020.48 179.463C1058.02 181.938 1091.85 147.266 1086.47 109.395C1086.43 109.178 1086.39 108.991 1086.31 108.813C1085.25 86.866 1067.88 66.8429 1047.26 59.7298ZM1048.05 168.797C1048.81 166.181 1049.59 163.557 1050.35 160.942C1050.43 160.68 1050.38 160.441 1050.28 160.25C1053.89 158.739 1057.35 156.85 1060.64 154.722C1059.95 157.258 1059.27 159.793 1058.58 162.329C1055.31 164.835 1051.79 167.029 1048.05 168.797ZM1062.74 153.916C1062.78 153.717 1062.77 153.544 1062.68 153.397C1068.26 149.461 1073.17 144.578 1077.12 138.871C1073.49 147.179 1067.87 154.553 1060.98 160.424C1061.55 158.243 1062.15 156.075 1062.74 153.916ZM989.648 79.5721C1003.81 64.7434 1025.82 59.3979 1045.38 64.6932C1073.2 74.4239 1090.86 106.418 1074.23 133.205C1057.32 160.44 1016.92 171.723 991.831 148.695C981.409 139.128 976.371 125.47 976.637 111.916C976.702 110.785 976.744 109.663 976.808 108.531C977.756 97.9216 981.991 87.5747 989.648 79.5721ZM989.576 159.309C989.832 157.819 990.11 156.321 990.365 154.831C991.923 156.038 993.534 157.121 995.207 158.102C994.628 159.746 994.062 161.36 993.482 163.004C992.102 161.855 990.815 160.618 989.576 159.309ZM979.275 142.418C981.939 146.734 985.127 150.431 988.741 153.521C988.495 154.905 988.262 156.257 988.015 157.641C984.217 153.184 981.196 148.032 979.275 142.418ZM1039.34 172.129C1039.95 169.801 1040.59 167.465 1041.21 165.138C1041.51 164.016 1039.73 163.744 1039.43 164.866C1038.73 167.486 1038.04 170.097 1037.33 172.695C1031.05 174.264 1024.43 174.732 1017.74 173.864C1009.35 172.773 1001.51 169.329 994.942 164.224C995.54 162.496 996.146 160.789 996.765 159.052C1011.97 167.338 1031.49 167.557 1048.49 160.963C1047.62 163.902 1046.75 166.872 1045.89 169.811C1043.78 170.7 1041.58 171.497 1039.34 172.129Z" fill="#07080E"/>
<g filter="url(#filter11_d_1766_19563)">
<path d="M1066.23 99.974C1066.56 100.783 1066.89 101.78 1067.23 102.963C1067.61 104.133 1067.92 105.35 1068.17 106.614C1068.45 107.864 1068.61 109.077 1068.66 110.253C1068.7 111.428 1068.56 112.42 1068.24 113.228C1068.12 113.573 1067.51 114.115 1066.4 114.854C1065.31 115.542 1063.97 116.351 1062.38 117.28C1060.81 118.158 1059.11 119.086 1057.29 120.066C1055.46 121.046 1053.72 121.972 1052.07 122.842C1050.44 123.661 1049.02 124.373 1047.81 124.98C1046.6 125.587 1045.83 125.956 1045.5 126.088L1049.62 137.737C1048.51 138.264 1047.39 138.727 1046.27 139.129C1045.14 139.493 1044 139.902 1042.86 140.354C1042.13 140.646 1041.4 140.957 1040.68 141.286C1039.96 141.615 1039.25 141.962 1038.54 142.327C1037.17 138.87 1035.81 135.45 1034.46 132.067C1033.12 128.683 1031.69 125.292 1030.17 121.893C1028.82 118.811 1027.47 115.747 1026.14 112.702C1024.84 109.642 1023.53 106.563 1022.21 103.467C1025.9 101.705 1029.58 99.881 1033.26 97.9945C1036.96 96.0567 1040.73 94.3285 1044.55 92.8098C1045.21 92.5469 1046.29 92.2043 1047.78 91.7819C1049.26 91.3227 1050.85 90.9263 1052.55 90.5926C1054.23 90.2221 1055.81 89.9763 1057.3 89.8551C1058.82 89.7194 1059.9 89.8213 1060.55 90.161C1060.98 90.3752 1061.47 90.9238 1062.03 91.807C1062.63 92.6756 1063.21 93.6397 1063.76 94.6992C1064.29 95.7219 1064.78 96.7408 1065.23 97.756C1065.71 98.7565 1066.04 99.4959 1066.23 99.974ZM1050.63 105.721C1050.5 105.39 1050.32 104.974 1050.08 104.474C1049.83 103.974 1049.56 103.506 1049.26 103.072C1048.99 102.587 1048.67 102.178 1048.33 101.846C1047.97 101.478 1047.61 101.26 1047.24 101.193C1047.01 101.156 1046.68 101.181 1046.25 101.268C1045.81 101.355 1045.37 101.468 1044.91 101.606C1044.46 101.745 1044.03 101.894 1043.62 102.055C1043.2 102.179 1042.9 102.277 1042.72 102.35C1041.36 102.89 1040.03 103.504 1038.72 104.192C1037.42 104.879 1036.12 105.611 1034.81 106.386C1035.35 107.446 1035.84 108.509 1036.26 109.575C1036.72 110.627 1037.17 111.686 1037.59 112.753C1038.28 114.481 1039.02 116.206 1039.84 117.928C1040.31 117.738 1041.13 117.391 1042.3 116.887C1043.44 116.346 1044.64 115.765 1045.88 115.144C1047.11 114.486 1048.25 113.82 1049.3 113.146C1050.34 112.436 1050.98 111.799 1051.23 111.233C1051.64 110.345 1051.73 109.438 1051.49 108.512C1051.27 107.534 1050.99 106.604 1050.63 105.721Z" fill="white"/>
</g>
<g filter="url(#filter12_d_1766_19563)">
<path d="M1030.32 80.8204C1028.87 85.4387 1027.44 90.0312 1026.02 94.5981C1024.62 99.1135 1023.1 103.654 1021.46 108.221C1024.92 110.809 1028.46 113.298 1032.09 115.688C1034.04 116.956 1036.02 118.192 1038.03 119.395C1040.03 120.561 1042.05 121.738 1044.1 122.926L1030.37 128.888C1028.33 127.273 1026.27 125.729 1024.19 124.254C1022.1 122.742 1020.03 121.179 1017.99 119.565C1017.41 122.179 1016.88 124.772 1016.41 127.342C1015.93 129.876 1015.48 132.458 1015.08 135.087C1014.21 135.261 1013.35 135.498 1012.49 135.797C1011.64 136.133 1010.8 136.469 1009.95 136.805C1008.55 137.36 1007.14 137.94 1005.72 138.546C1004.36 139.175 1002.99 139.803 1001.62 140.432L1008.67 116.047C1007.27 114.985 1005.88 113.942 1004.49 112.917C1003.14 111.878 1001.77 110.845 1000.39 109.821C997.84 108.021 995.255 106.281 992.628 104.599C990.024 102.865 987.42 101.132 984.816 99.3984C987.522 98.4941 990.17 97.5492 992.759 96.5638C995.348 95.5784 997.977 94.6408 1000.65 93.7512C1002.49 95.1887 1004.37 96.5933 1006.28 97.9648C1008.21 99.285 1010.13 100.631 1012.03 102.002C1012.62 99.513 1013.2 97.0492 1013.76 94.6111C1014.35 92.1216 1014.85 89.6245 1015.26 87.1199C1016.21 86.8284 1017.12 86.5074 1018 86.1569C1018.91 85.7551 1019.82 85.3716 1020.74 85.0066C1023.94 83.7361 1027.13 82.3407 1030.32 80.8204Z" fill="white"/>
</g>
<circle cx="1025.94" cy="112.879" r="49.0104" transform="rotate(-21.6561 1025.94 112.879)" fill="#07D170"/>
<path d="M996.588 98.896L1011.42 110.653L1014.15 91.9249L1028.44 86.2508L1022.99 116.774L1047.08 134.782L1032.78 140.456L1018.77 129.163L1016.32 146.995L1001.96 152.696L1007.13 123.069L982.23 104.597L996.588 98.896Z" fill="#006B38"/>
<path d="M1041.51 136.991L1022.33 88.6765L1043.15 80.4084C1045.51 79.4718 1047.88 79.0835 1050.25 79.2436C1052.62 79.4037 1054.86 80.0121 1056.96 81.0689C1059.04 82.0803 1060.87 83.4309 1062.43 85.1208C1064.04 86.7927 1065.25 88.6494 1066.06 90.6908C1067.19 93.5489 1067.59 96.5184 1067.23 99.5993C1066.93 102.662 1065.9 105.488 1064.14 108.075C1062.41 110.6 1059.96 112.493 1056.78 113.754L1048.89 116.888L1054.78 131.722L1041.51 136.991ZM1044.3 105.319L1051.31 102.536C1051.85 102.32 1052.31 101.954 1052.68 101.439C1053.05 100.923 1053.25 100.216 1053.26 99.3191C1053.31 98.4038 1053.09 97.311 1052.59 96.0407C1052.05 94.6797 1051.43 93.7174 1050.73 93.1536C1050.06 92.5265 1049.38 92.1939 1048.68 92.1559C1048.01 92.0545 1047.4 92.1119 1046.86 92.3281L1040.19 94.976L1044.3 105.319Z" fill="white"/>
</g>
<g clip-path="url(#clip4_1766_19563)">
<path d="M811.181 872.079C783.175 850.424 791.347 811.003 798.934 793.999C799.416 790.494 796.944 788.698 783.196 809.551C766.011 835.618 785.393 873.227 810.617 897.136C835.841 921.045 889.102 905.3 903.253 891.095C879.079 905.074 846.189 899.147 811.181 872.079Z" fill="#0E9953"/>
<path d="M791.28 819.07C789.363 787.49 820.554 765.439 836.39 758.361C889.034 739.317 923.338 782.276 928.728 788.622C934.118 794.967 963.968 874.481 896.781 894.408C829.594 914.334 793.677 858.544 791.28 819.07Z" fill="#0E9953"/>
<path d="M933.99 794.882C933.892 794.697 933.78 794.543 933.681 794.359C933.647 794.273 933.625 794.157 933.561 794.059C909.789 752.306 854.832 739.852 818.148 765.742C817.612 765.833 817.073 766.101 816.559 766.557C815.63 767.404 814.658 768.269 813.717 769.146C811.795 770.742 809.95 772.407 808.144 774.23C796.108 785.405 784.446 797.699 778.93 813.217C770.198 837.773 775.485 865.89 792.713 885.385C826.792 923.929 893.028 922.825 924.256 880.861C924.432 880.616 924.564 880.388 924.667 880.147C944.762 857.808 947.165 821.637 933.99 794.882ZM829.762 901.571C833.017 899.761 836.301 897.964 839.556 896.155C839.881 895.974 840.07 895.699 840.155 895.415C845.116 897.424 850.295 898.921 855.537 900.02C852.429 901.82 849.32 903.621 846.211 905.422C840.626 904.711 835.096 903.454 829.762 901.571ZM858.346 901.253C858.586 901.106 858.736 900.921 858.795 900.698C867.999 902.242 877.474 902.231 886.801 900.488C875.275 905.06 862.716 906.81 850.377 905.884C853.032 904.316 855.704 902.791 858.346 901.253ZM858.932 758.689C886.963 757.921 913.486 773.919 927.386 797.892C945.035 834.122 931.385 882.195 889.447 892.202C846.802 902.37 796.706 874.439 794.51 827.924C793.597 808.599 801.853 790.484 815.159 777.577C816.311 776.54 817.432 775.491 818.584 774.454C829.718 765.062 843.792 759.09 858.932 758.689ZM782.101 836.062C783.784 834.861 785.497 833.673 787.179 832.472C787.53 835.143 788.052 837.746 788.732 840.31C786.587 841.349 784.484 842.371 782.338 843.41C782.103 840.965 782.045 838.525 782.101 836.062ZM788.357 809.74C786.789 816.496 786.327 823.156 786.863 829.637C785.291 830.743 783.763 831.832 782.191 832.939C782.794 824.953 784.819 817.042 788.357 809.74ZM818.09 896.417C820.929 894.75 823.798 893.095 826.637 891.428C828.008 890.627 826.544 888.653 825.173 889.454C821.966 891.319 818.789 893.198 815.594 895.033C807.981 890.508 801.104 884.592 795.445 877.313C788.345 868.175 784.049 857.284 782.582 846.001C784.826 844.897 787.057 843.823 789.331 842.732C796.12 865.415 814.868 884.421 837.724 894.379C834.058 896.404 830.349 898.446 826.684 900.472C823.776 899.303 820.873 897.959 818.09 896.417Z" fill="#07080E"/>
<g filter="url(#filter13_d_1766_19563)">
<path d="M914.11 851.43C913.643 852.525 913.006 853.813 912.199 855.292C911.442 856.793 910.574 858.276 909.596 859.741C908.668 861.228 907.658 862.562 906.566 863.743C905.474 864.925 904.385 865.755 903.299 866.233C902.852 866.454 901.733 866.389 899.942 866.037C898.221 865.656 896.142 865.152 893.704 864.524C891.337 863.868 888.795 863.137 886.079 862.333C883.364 861.528 880.783 860.751 878.338 860.002C875.963 859.225 873.898 858.551 872.142 857.978C870.386 857.406 869.283 857.025 868.835 856.834L861.617 872.109C860.031 871.551 858.503 870.928 857.031 870.242C855.58 869.506 854.083 868.809 852.54 868.151C851.544 867.726 850.538 867.327 849.521 866.952C848.504 866.577 847.477 866.228 846.439 865.903C848.434 861.224 850.408 856.595 852.36 852.015C854.313 847.436 856.187 842.764 857.982 838C859.637 833.706 861.281 829.436 862.914 825.191C864.597 820.967 866.291 816.719 867.995 812.445C873.271 814.283 878.603 816.056 883.992 817.766C889.452 819.446 894.77 821.39 899.947 823.597C900.843 823.979 902.219 824.684 904.076 825.71C905.953 826.687 907.877 827.831 909.848 829.142C911.84 830.403 913.615 831.689 915.173 833.001C916.782 834.334 917.736 835.476 918.036 836.427C918.243 837.045 918.196 838.054 917.893 839.454C917.64 840.876 917.269 842.365 916.782 843.922C916.316 845.429 915.811 846.89 915.266 848.305C914.772 849.741 914.386 850.783 914.11 851.43ZM893.427 841.994C893.618 841.546 893.837 840.963 894.085 840.245C894.332 839.527 894.519 838.813 894.645 838.102C894.843 837.363 894.934 836.666 894.919 836.012C894.924 835.309 894.781 834.748 894.489 834.329C894.304 834.074 893.959 833.78 893.454 833.447C892.949 833.114 892.408 832.795 891.832 832.491C891.256 832.186 890.694 831.917 890.146 831.684C889.62 831.4 889.233 831.206 888.984 831.1C887.142 830.314 885.258 829.629 883.331 829.043C881.405 828.457 879.432 827.91 877.413 827.402C876.926 828.959 876.374 830.459 875.759 831.903C875.193 833.367 874.603 834.821 873.987 836.265C872.99 838.604 872.056 841.001 871.187 843.454C871.834 843.729 872.965 844.182 874.579 844.811C876.214 845.391 877.935 845.977 879.74 846.571C881.568 847.115 883.316 847.566 884.987 847.925C886.678 848.235 887.915 848.232 888.696 847.918C889.952 847.454 890.91 846.656 891.569 845.526C892.298 844.366 892.918 843.189 893.427 841.994Z" fill="white"/>
</g>
<g filter="url(#filter14_d_1766_19563)">
<path d="M897.666 798.25C891.817 801.344 886.004 804.425 880.226 807.491C874.519 810.528 868.673 813.477 862.689 816.338C863.553 822.177 864.597 828.004 865.823 833.821C866.497 836.932 867.231 840.039 868.026 843.143C868.841 846.196 869.671 849.286 870.516 852.41L851.446 844.986C851.013 841.448 850.498 837.964 849.902 834.533C849.327 831.053 848.823 827.544 848.39 824.006C845.31 825.987 842.305 828 839.374 830.045C836.465 832.04 833.548 834.12 830.625 836.285C829.615 835.619 828.548 835.018 827.424 834.48C826.28 833.992 825.135 833.503 823.99 833.015C822.098 832.209 820.171 831.417 818.209 830.639C816.275 829.932 814.341 829.225 812.407 828.518L842.729 811.622C842.39 809.242 842.041 806.888 841.682 804.558C841.372 802.249 841.037 799.93 840.677 797.6C839.938 793.402 839.102 789.222 838.171 785.061C837.31 780.87 836.45 776.68 835.589 772.489C839.088 774.216 842.569 775.847 846.032 777.383C849.495 778.918 852.952 780.539 856.401 782.245C856.812 785.42 857.283 788.591 857.815 791.759C858.418 794.899 858.985 798.052 859.517 801.22C862.483 799.367 865.414 797.529 868.31 795.704C871.276 793.851 874.164 791.906 876.974 789.869C878.176 790.499 879.374 791.069 880.569 791.578C881.835 792.059 883.09 792.564 884.334 793.095C888.665 794.941 893.108 796.66 897.666 798.25Z" fill="white"/>
</g>
<circle cx="862.55" cy="825.169" r="67.021" transform="rotate(23.0909 862.55 825.169)" fill="#07D170"/>
<path d="M847.649 783.01L850.734 808.706L871.411 793.141L890.753 801.387L856.078 825.787L862.136 866.465L842.795 858.219L840.054 833.758L820.506 848.716L801.073 840.431L834.618 816.637L828.216 774.724L847.649 783.01Z" fill="#006B38"/>
<path d="M854.605 863.254L882.484 797.862L910.668 809.878C913.86 811.239 916.533 813.14 918.685 815.581C920.837 818.023 922.424 820.767 923.446 823.815C924.495 826.802 924.965 829.869 924.857 833.016C924.81 836.188 924.198 839.156 923.02 841.92C921.371 845.788 918.892 849.048 915.584 851.702C912.338 854.381 908.616 856.132 904.419 856.955C900.31 857.743 896.107 857.22 891.808 855.388L881.125 850.833L872.564 870.911L854.605 863.254ZM887.8 835.176L897.287 839.22C898.023 839.534 898.821 839.62 899.68 839.479C900.539 839.337 901.405 838.836 902.28 837.975C903.216 837.141 904.051 835.864 904.784 834.145C905.569 832.302 905.895 830.772 905.761 829.554C905.715 828.301 905.371 827.32 904.73 826.611C904.177 825.868 903.532 825.338 902.795 825.024L893.769 821.176L887.8 835.176Z" fill="white"/>
</g>
<defs>
<filter id="filter0_d_1766_19563" x="591.198" y="331.448" width="109.406" height="109.384" filterUnits="userSpaceOnUse" color-interpolation-filters="sRGB">
<feFlood flood-opacity="0" result="BackgroundImageFix"/>
<feColorMatrix in="SourceAlpha" type="matrix" values="0 0 0 0 0 0 0 0 0 0 0 0 0 0 0 0 0 0 127 0" result="hardAlpha"/>
<feOffset dx="6.86257" dy="9.15009"/>
<feGaussianBlur stdDeviation="5.71881"/>
<feComposite in2="hardAlpha" operator="out"/>
<feColorMatrix type="matrix" values="0 0 0 0 0 0 0 0 0 0 0 0 0 0 0 0 0 0 0.25 0"/>
<feBlend mode="normal" in2="BackgroundImageFix" result="effect1_dropShadow_1766_19563"/>
<feBlend mode="normal" in="SourceGraphic" in2="effect1_dropShadow_1766_19563" result="shape"/>
</filter>
<pattern id="pattern0" patternContentUnits="objectBoundingBox" width="1" height="1">
<use xlink:href="#image0_1766_19563" transform="scale(0.00347222 0.00342466)"/>
</pattern>
<filter id="filter1_d_1766_19563" x="306.484" y="40.3557" width="670.617" height="676.825" filterUnits="userSpaceOnUse" color-interpolation-filters="sRGB">
<feFlood flood-opacity="0" result="BackgroundImageFix"/>
<feColorMatrix in="SourceAlpha" type="matrix" values="0 0 0 0 0 0 0 0 0 0 0 0 0 0 0 0 0 0 127 0" result="hardAlpha"/>
<feOffset dx="4.57505" dy="2.28752"/>
<feGaussianBlur stdDeviation="4.57505"/>
<feComposite in2="hardAlpha" operator="out"/>
<feColorMatrix type="matrix" values="0 0 0 0 0 0 0 0 0 0 0 0 0 0 0 0 0 0 0.44 0"/>
<feBlend mode="normal" in2="BackgroundImageFix" result="effect1_dropShadow_1766_19563"/>
<feBlend mode="normal" in="SourceGraphic" in2="effect1_dropShadow_1766_19563" result="shape"/>
</filter>
<filter id="filter2_d_1766_19563" x="280.101" y="13.9785" width="723.386" height="729.58" filterUnits="userSpaceOnUse" color-interpolation-filters="sRGB">
<feFlood flood-opacity="0" result="BackgroundImageFix"/>
<feColorMatrix in="SourceAlpha" type="matrix" values="0 0 0 0 0 0 0 0 0 0 0 0 0 0 0 0 0 0 127 0" result="hardAlpha"/>
<feOffset dx="4.57505" dy="2.28752"/>
<feGaussianBlur stdDeviation="4.57505"/>
<feComposite in2="hardAlpha" operator="out"/>
<feColorMatrix type="matrix" values="0 0 0 0 0 0 0 0 0 0 0 0 0 0 0 0 0 0 0.28 0"/>
<feBlend mode="normal" in2="BackgroundImageFix" result="effect1_dropShadow_1766_19563"/>
<feBlend mode="normal" in="SourceGraphic" in2="effect1_dropShadow_1766_19563" result="shape"/>
</filter>
<filter id="filter3_d_1766_19563" x="586.674" y="5.37891" width="105.64" height="91.0653" filterUnits="userSpaceOnUse" color-interpolation-filters="sRGB">
<feFlood flood-opacity="0" result="BackgroundImageFix"/>
<feColorMatrix in="SourceAlpha" type="matrix" values="0 0 0 0 0 0 0 0 0 0 0 0 0 0 0 0 0 0 127 0" result="hardAlpha"/>
<feOffset dy="9.15009"/>
<feGaussianBlur stdDeviation="4.57505"/>
<feComposite in2="hardAlpha" operator="out"/>
<feColorMatrix type="matrix" values="0 0 0 0 0 0 0 0 0 0 0 0 0 0 0 0 0 0 0.35 0"/>
<feBlend mode="normal" in2="BackgroundImageFix" result="effect1_dropShadow_1766_19563"/>
<feBlend mode="normal" in="SourceGraphic" in2="effect1_dropShadow_1766_19563" result="shape"/>
</filter>
<filter id="filter4_d_1766_19563" x="369.129" y="318.292" width="543.777" height="112.689" filterUnits="userSpaceOnUse" color-interpolation-filters="sRGB">
<feFlood flood-opacity="0" result="BackgroundImageFix"/>
<feColorMatrix in="SourceAlpha" type="matrix" values="0 0 0 0 0 0 0 0 0 0 0 0 0 0 0 0 0 0 127 0" result="hardAlpha"/>
<feOffset dx="3.11718" dy="2.07812"/>
<feGaussianBlur stdDeviation="3.11718"/>
<feComposite in2="hardAlpha" operator="out"/>
<feColorMatrix type="matrix" values="0 0 0 0 0 0 0 0 0 0 0 0 0 0 0 0 0 0 0.55 0"/>
<feBlend mode="normal" in2="BackgroundImageFix" result="effect1_dropShadow_1766_19563"/>
<feBlend mode="normal" in="SourceGraphic" in2="effect1_dropShadow_1766_19563" result="shape"/>
</filter>
<pattern id="pattern1" patternContentUnits="objectBoundingBox" width="1" height="1">
<use xlink:href="#image1_1766_19563" transform="matrix(0.00044603 0 0 0.000435017 0 -0.00309745)"/>
</pattern>
<pattern id="pattern2" patternContentUnits="objectBoundingBox" width="1" height="1">
<use xlink:href="#image1_1766_19563" transform="matrix(0.00044603 0 0 0.000435017 0 -0.00309745)"/>
</pattern>
<filter id="filter5_d_1766_19563" x="168.234" y="120.577" width="69.7981" height="60.4822" filterUnits="userSpaceOnUse" color-interpolation-filters="sRGB">
<feFlood flood-opacity="0" result="BackgroundImageFix"/>
<feColorMatrix in="SourceAlpha" type="matrix" values="0 0 0 0 0 0 0 0 0 0 0 0 0 0 0 0 0 0 127 0" result="hardAlpha"/>
<feOffset dy="5.75362"/>
<feGaussianBlur stdDeviation="3.59601"/>
<feComposite in2="hardAlpha" operator="out"/>
<feColorMatrix type="matrix" values="0 0 0 0 0 0 0 0 0 0 0 0 0 0 0 0 0 0 0.32 0"/>
<feBlend mode="normal" in2="BackgroundImageFix" result="effect1_dropShadow_1766_19563"/>
<feBlend mode="normal" in="SourceGraphic" in2="effect1_dropShadow_1766_19563" result="shape"/>
</filter>
<filter id="filter6_d_1766_19563" x="141.937" y="89.7059" width="80.2591" height="76.1338" filterUnits="userSpaceOnUse" color-interpolation-filters="sRGB">
<feFlood flood-opacity="0" result="BackgroundImageFix"/>
<feColorMatrix in="SourceAlpha" type="matrix" values="0 0 0 0 0 0 0 0 0 0 0 0 0 0 0 0 0 0 127 0" result="hardAlpha"/>
<feOffset dy="5.75362"/>
<feGaussianBlur stdDeviation="3.59601"/>
<feComposite in2="hardAlpha" operator="out"/>
<feColorMatrix type="matrix" values="0 0 0 0 0 0 0 0 0 0 0 0 0 0 0 0 0 0 0.32 0"/>
<feBlend mode="normal" in2="BackgroundImageFix" result="effect1_dropShadow_1766_19563"/>
<feBlend mode="normal" in="SourceGraphic" in2="effect1_dropShadow_1766_19563" result="shape"/>
</filter>
<filter id="filter7_d_1766_19563" x="376.806" y="641.974" width="70.197" height="77.3085" filterUnits="userSpaceOnUse" color-interpolation-filters="sRGB">
<feFlood flood-opacity="0" result="BackgroundImageFix"/>
<feColorMatrix in="SourceAlpha" type="matrix" values="0 0 0 0 0 0 0 0 0 0 0 0 0 0 0 0 0 0 127 0" result="hardAlpha"/>
<feOffset dy="6.36472"/>
<feGaussianBlur stdDeviation="3.97795"/>
<feComposite in2="hardAlpha" operator="out"/>
<feColorMatrix type="matrix" values="0 0 0 0 0 0 0 0 0 0 0 0 0 0 0 0 0 0 0.32 0"/>
<feBlend mode="normal" in2="BackgroundImageFix" result="effect1_dropShadow_1766_19563"/>
<feBlend mode="normal" in="SourceGraphic" in2="effect1_dropShadow_1766_19563" result="shape"/>
</filter>
<filter id="filter8_d_1766_19563" x="333.095" y="631.482" width="85.2009" height="85.5847" filterUnits="userSpaceOnUse" color-interpolation-filters="sRGB">
<feFlood flood-opacity="0" result="BackgroundImageFix"/>
<feColorMatrix in="SourceAlpha" type="matrix" values="0 0 0 0 0 0 0 0 0 0 0 0 0 0 0 0 0 0 127 0" result="hardAlpha"/>
<feOffset dy="6.36472"/>
<feGaussianBlur stdDeviation="3.97795"/>
<feComposite in2="hardAlpha" operator="out"/>
<feColorMatrix type="matrix" values="0 0 0 0 0 0 0 0 0 0 0 0 0 0 0 0 0 0 0.32 0"/>
<feBlend mode="normal" in2="BackgroundImageFix" result="effect1_dropShadow_1766_19563"/>
<feBlend mode="normal" in="SourceGraphic" in2="effect1_dropShadow_1766_19563" result="shape"/>
</filter>
<filter id="filter9_d_1766_19563" x="1186.04" y="356.114" width="95.3457" height="105" filterUnits="userSpaceOnUse" color-interpolation-filters="sRGB">
<feFlood flood-opacity="0" result="BackgroundImageFix"/>
<feColorMatrix in="SourceAlpha" type="matrix" values="0 0 0 0 0 0 0 0 0 0 0 0 0 0 0 0 0 0 127 0" result="hardAlpha"/>
<feOffset dy="8.64455"/>
<feGaussianBlur stdDeviation="5.40284"/>
<feComposite in2="hardAlpha" operator="out"/>
<feColorMatrix type="matrix" values="0 0 0 0 0 0 0 0 0 0 0 0 0 0 0 0 0 0 0.32 0"/>
<feBlend mode="normal" in2="BackgroundImageFix" result="effect1_dropShadow_1766_19563"/>
<feBlend mode="normal" in="SourceGraphic" in2="effect1_dropShadow_1766_19563" result="shape"/>
</filter>
<filter id="filter10_d_1766_19563" x="1126.67" y="341.864" width="115.721" height="116.241" filterUnits="userSpaceOnUse" color-interpolation-filters="sRGB">
<feFlood flood-opacity="0" result="BackgroundImageFix"/>
<feColorMatrix in="SourceAlpha" type="matrix" values="0 0 0 0 0 0 0 0 0 0 0 0 0 0 0 0 0 0 127 0" result="hardAlpha"/>
<feOffset dy="8.64455"/>
<feGaussianBlur stdDeviation="5.40284"/>
<feComposite in2="hardAlpha" operator="out"/>
<feColorMatrix type="matrix" values="0 0 0 0 0 0 0 0 0 0 0 0 0 0 0 0 0 0 0.32 0"/>
<feBlend mode="normal" in2="BackgroundImageFix" result="effect1_dropShadow_1766_19563"/>
<feBlend mode="normal" in="SourceGraphic" in2="effect1_dropShadow_1766_19563" result="shape"/>
</filter>
<filter id="filter11_d_1766_19563" x="1015.41" y="88.4355" width="60.0632" height="66.1445" filterUnits="userSpaceOnUse" color-interpolation-filters="sRGB">
<feFlood flood-opacity="0" result="BackgroundImageFix"/>
<feColorMatrix in="SourceAlpha" type="matrix" values="0 0 0 0 0 0 0 0 0 0 0 0 0 0 0 0 0 0 127 0" result="hardAlpha"/>
<feOffset dy="5.4456"/>
<feGaussianBlur stdDeviation="3.4035"/>
<feComposite in2="hardAlpha" operator="out"/>
<feColorMatrix type="matrix" values="0 0 0 0 0 0 0 0 0 0 0 0 0 0 0 0 0 0 0.32 0"/>
<feBlend mode="normal" in2="BackgroundImageFix" result="effect1_dropShadow_1766_19563"/>
<feBlend mode="normal" in="SourceGraphic" in2="effect1_dropShadow_1766_19563" result="shape"/>
</filter>
<filter id="filter12_d_1766_19563" x="978.009" y="79.4592" width="72.8952" height="73.2253" filterUnits="userSpaceOnUse" color-interpolation-filters="sRGB">
<feFlood flood-opacity="0" result="BackgroundImageFix"/>
<feColorMatrix in="SourceAlpha" type="matrix" values="0 0 0 0 0 0 0 0 0 0 0 0 0 0 0 0 0 0 127 0" result="hardAlpha"/>
<feOffset dy="5.4456"/>
<feGaussianBlur stdDeviation="3.4035"/>
<feComposite in2="hardAlpha" operator="out"/>
<feColorMatrix type="matrix" values="0 0 0 0 0 0 0 0 0 0 0 0 0 0 0 0 0 0 0.32 0"/>
<feBlend mode="normal" in2="BackgroundImageFix" result="effect1_dropShadow_1766_19563"/>
<feBlend mode="normal" in="SourceGraphic" in2="effect1_dropShadow_1766_19563" result="shape"/>
</filter>
<filter id="filter13_d_1766_19563" x="837.129" y="810.584" width="90.3435" height="78.2808" filterUnits="userSpaceOnUse" color-interpolation-filters="sRGB">
<feFlood flood-opacity="0" result="BackgroundImageFix"/>
<feColorMatrix in="SourceAlpha" type="matrix" values="0 0 0 0 0 0 0 0 0 0 0 0 0 0 0 0 0 0 127 0" result="hardAlpha"/>
<feOffset dy="7.44677"/>
<feGaussianBlur stdDeviation="4.65423"/>
<feComposite in2="hardAlpha" operator="out"/>
<feColorMatrix type="matrix" values="0 0 0 0 0 0 0 0 0 0 0 0 0 0 0 0 0 0 0.32 0"/>
<feBlend mode="normal" in2="BackgroundImageFix" result="effect1_dropShadow_1766_19563"/>
<feBlend mode="normal" in="SourceGraphic" in2="effect1_dropShadow_1766_19563" result="shape"/>
</filter>
<filter id="filter14_d_1766_19563" x="803.098" y="770.628" width="103.875" height="98.5381" filterUnits="userSpaceOnUse" color-interpolation-filters="sRGB">
<feFlood flood-opacity="0" result="BackgroundImageFix"/>
<feColorMatrix in="SourceAlpha" type="matrix" values="0 0 0 0 0 0 0 0 0 0 0 0 0 0 0 0 0 0 127 0" result="hardAlpha"/>
<feOffset dy="7.44677"/>
<feGaussianBlur stdDeviation="4.65423"/>
<feComposite in2="hardAlpha" operator="out"/>
<feColorMatrix type="matrix" values="0 0 0 0 0 0 0 0 0 0 0 0 0 0 0 0 0 0 0.32 0"/>
<feBlend mode="normal" in2="BackgroundImageFix" result="effect1_dropShadow_1766_19563"/>
<feBlend mode="normal" in="SourceGraphic" in2="effect1_dropShadow_1766_19563" result="shape"/>
</filter>
<linearGradient id="paint0_linear_1766_19563" x1="1035.18" y1="-19.0555" x2="345.223" y2="698.478" gradientUnits="userSpaceOnUse">
<stop stop-color="#FFF3C8"/>
<stop offset="1" stop-color="#FFFCF1"/>
</linearGradient>
<linearGradient id="paint1_linear_1766_19563" x1="1035.18" y1="-19.0555" x2="345.223" y2="698.478" gradientUnits="userSpaceOnUse">
<stop stop-color="#FFF3C8"/>
<stop offset="1" stop-color="#FFFCF1"/>
</linearGradient>
<linearGradient id="paint2_linear_1766_19563" x1="1035.18" y1="-19.0555" x2="345.223" y2="698.478" gradientUnits="userSpaceOnUse">
<stop stop-color="#FFF3C8"/>
<stop offset="1" stop-color="#FFFCF1"/>
</linearGradient>
<linearGradient id="paint3_linear_1766_19563" x1="1035.18" y1="-19.0555" x2="345.223" y2="698.478" gradientUnits="userSpaceOnUse">
<stop stop-color="#FFF3C8"/>
<stop offset="1" stop-color="#FFFCF1"/>
</linearGradient>
<linearGradient id="paint4_linear_1766_19563" x1="1035.18" y1="-19.0555" x2="345.223" y2="698.478" gradientUnits="userSpaceOnUse">
<stop stop-color="#FFF3C8"/>
<stop offset="1" stop-color="#FFFCF1"/>
</linearGradient>
<linearGradient id="paint5_linear_1766_19563" x1="1035.18" y1="-19.0555" x2="345.223" y2="698.478" gradientUnits="userSpaceOnUse">
<stop stop-color="#FFF3C8"/>
<stop offset="1" stop-color="#FFFCF1"/>
</linearGradient>
<linearGradient id="paint6_linear_1766_19563" x1="1035.18" y1="-19.0555" x2="345.223" y2="698.478" gradientUnits="userSpaceOnUse">
<stop stop-color="#FFF3C8"/>
<stop offset="1" stop-color="#FFFCF1"/>
</linearGradient>
<linearGradient id="paint7_linear_1766_19563" x1="1035.18" y1="-19.0555" x2="345.223" y2="698.478" gradientUnits="userSpaceOnUse">
<stop stop-color="#FFF3C8"/>
<stop offset="1" stop-color="#FFFCF1"/>
</linearGradient>
<linearGradient id="paint8_linear_1766_19563" x1="1035.18" y1="-19.0555" x2="345.223" y2="698.478" gradientUnits="userSpaceOnUse">
<stop stop-color="#FFF3C8"/>
<stop offset="1" stop-color="#FFFCF1"/>
</linearGradient>
<linearGradient id="paint9_linear_1766_19563" x1="1035.18" y1="-19.0555" x2="345.223" y2="698.478" gradientUnits="userSpaceOnUse">
<stop stop-color="#FFF3C8"/>
<stop offset="1" stop-color="#FFFCF1"/>
</linearGradient>
<linearGradient id="paint10_linear_1766_19563" x1="608.446" y1="407.582" x2="669.623" y2="346.39" gradientUnits="userSpaceOnUse">
<stop stop-color="#993C0B"/>
<stop offset="0.8495" stop-color="#FFE368"/>
<stop offset="1" stop-color="#F8C448"/>
</linearGradient>
<linearGradient id="paint11_linear_1766_19563" x1="637.217" y1="47.2183" x2="637.217" y2="705.743" gradientUnits="userSpaceOnUse">
<stop stop-color="#E8CB97"/>
<stop offset="1" stop-color="#E3BB72"/>
</linearGradient>
<linearGradient id="paint12_linear_1766_19563" x1="885.229" y1="732.121" x2="452.712" y2="102.858" gradientUnits="userSpaceOnUse">
<stop stop-color="#E8CB97"/>
<stop offset="0.182292" stop-color="#FFF2D9"/>
<stop offset="0.354167" stop-color="#E8D3AD"/>
<stop offset="0.557292" stop-color="#F3E2C3"/>
<stop offset="0.776042" stop-color="#EED098"/>
<stop offset="1" stop-color="#FFF9EF"/>
</linearGradient>
<linearGradient id="paint13_linear_1766_19563" x1="492.617" y1="61.9926" x2="474.926" y2="80.3909" gradientUnits="userSpaceOnUse">
<stop stop-color="#CDC7B3"/>
<stop offset="1" stop-color="#E8E2CF"/>
</linearGradient>
<linearGradient id="paint14_linear_1766_19563" x1="346.34" y1="210.293" x2="328.649" y2="228.692" gradientUnits="userSpaceOnUse">
<stop stop-color="#CDC7B3"/>
<stop offset="1" stop-color="#E8E2CF"/>
</linearGradient>
<linearGradient id="paint15_linear_1766_19563" x1="311.316" y1="424.507" x2="293.625" y2="442.905" gradientUnits="userSpaceOnUse">
<stop stop-color="#CDC7B3"/>
<stop offset="1" stop-color="#E8E2CF"/>
</linearGradient>
<linearGradient id="paint16_linear_1766_19563" x1="410.207" y1="611.943" x2="392.516" y2="630.342" gradientUnits="userSpaceOnUse">
<stop stop-color="#CDC7B3"/>
<stop offset="1" stop-color="#E8E2CF"/>
</linearGradient>
<linearGradient id="paint17_linear_1766_19563" x1="597.844" y1="705.647" x2="580.153" y2="724.046" gradientUnits="userSpaceOnUse">
<stop stop-color="#CDC7B3"/>
<stop offset="1" stop-color="#E8E2CF"/>
</linearGradient>
<linearGradient id="paint18_linear_1766_19563" x1="803.461" y1="671.082" x2="785.77" y2="689.481" gradientUnits="userSpaceOnUse">
<stop stop-color="#CDC7B3"/>
<stop offset="1" stop-color="#E8E2CF"/>
</linearGradient>
<linearGradient id="paint19_linear_1766_19563" x1="954.117" y1="523.375" x2="936.426" y2="541.773" gradientUnits="userSpaceOnUse">
<stop stop-color="#CDC7B3"/>
<stop offset="1" stop-color="#E8E2CF"/>
</linearGradient>
<linearGradient id="paint20_linear_1766_19563" x1="983.598" y1="314.535" x2="965.906" y2="332.933" gradientUnits="userSpaceOnUse">
<stop stop-color="#CDC7B3"/>
<stop offset="1" stop-color="#E8E2CF"/>
</linearGradient>
<linearGradient id="paint21_linear_1766_19563" x1="890.246" y1="123.786" x2="872.555" y2="142.184" gradientUnits="userSpaceOnUse">
<stop stop-color="#CDC7B3"/>
<stop offset="1" stop-color="#E8E2CF"/>
</linearGradient>
<linearGradient id="paint22_linear_1766_19563" x1="700.699" y1="26.9765" x2="683.008" y2="45.3748" gradientUnits="userSpaceOnUse">
<stop stop-color="#CDC7B3"/>
<stop offset="1" stop-color="#E8E2CF"/>
</linearGradient>
<linearGradient id="paint23_linear_1766_19563" x1="620.601" y1="41.7634" x2="707.942" y2="41.7634" gradientUnits="userSpaceOnUse">
<stop stop-color="#F8C448"/>
<stop offset="0.0738" stop-color="#F8C64B"/>
<stop offset="0.1179" stop-color="#F9CD53"/>
<stop offset="0.1542" stop-color="#FAD961"/>
<stop offset="0.1861" stop-color="#FCEA75"/>
<stop offset="0.2151" stop-color="#FFFF8F"/>
<stop offset="0.3656" stop-color="#F8C448"/>
<stop offset="0.4881" stop-color="#DE9E37"/>
<stop offset="0.6476" stop-color="#C07424"/>
<stop offset="0.7917" stop-color="#AB5516"/>
<stop offset="0.9141" stop-color="#9E430E"/>
<stop offset="1" stop-color="#993C0B"/>
</linearGradient>
<linearGradient id="paint24_linear_1766_19563" x1="613.416" y1="282.232" x2="613.416" y2="469.378" gradientUnits="userSpaceOnUse">
<stop stop-color="#CF9509"/>
<stop offset="1" stop-color="#725108"/>
</linearGradient>
<clipPath id="clip0_1766_19563">
<rect width="149.652" height="150.745" fill="white" transform="translate(146.145 39) rotate(23.0909)"/>
</clipPath>
<clipPath id="clip1_1766_19563">
<rect width="165.546" height="166.756" fill="white" transform="translate(284.023 630.092) rotate(-21.6561)"/>
</clipPath>
<clipPath id="clip2_1766_19563">
<rect width="224.845" height="226.487" fill="white" transform="translate(1060.02 339.976) rotate(-21.6561)"/>
</clipPath>
<clipPath id="clip3_1766_19563">
<rect width="141.64" height="142.675" fill="white" transform="translate(936.023 78.2695) rotate(-21.6561)"/>
</clipPath>
<clipPath id="clip4_1766_19563">
<rect width="193.691" height="195.105" fill="white" transform="translate(808.543 705) rotate(23.0909)"/>
</clipPath>
<image id="image0_1766_19563" width="288" height="292" xlink:href="/luckywheel_og_center.png"/>
<image id="image1_1766_19563" width="2242" height="2313" xlink:href="/luckywheel_og_box.png"/>
</defs>
</svg>
