<svg xmlns="http://www.w3.org/2000/svg" viewBox="0 0 52.63 52.63"><defs><style>.cls-1{fill:#fff;}.cls-2{fill:none;}</style></defs><g id="Layer_2" data-name="Layer 2"><g id="Layer_1-2" data-name="Layer 1"><path class="cls-1" d="M28.88,22.62v-3h7.06V15H16.71v4.58h7.06v3c-5.73.26-10,1.36-10,2.69S18,27.72,23.77,28v9.61h5.11V28c5.73-.25,10-1.35,10-2.68S34.61,22.88,28.88,22.62Zm0,4.55c-.15,0-.88,0-2.53,0-1.32,0-2.24,0-2.57-.06h0c-5.07-.22-8.85-1.08-8.85-2.1s3.78-1.89,8.85-2.11v3.35c.33,0,1.28.08,2.59.08,1.58,0,2.37-.07,2.52-.08V23c5.06.22,8.83,1.08,8.83,2.11S33.94,27,28.88,27.17Z"/><rect class="cls-2" width="52.63" height="52.63"/></g></g></svg>