<svg xmlns="http://www.w3.org/2000/svg" xmlns:xlink="http://www.w3.org/1999/xlink" viewBox="0 0 52.63 52.63"><defs><style>.cls-1{fill:url(#linear-gradient);}.cls-2{fill:url(#linear-gradient-2);}.cls-3{fill:none;}</style><linearGradient id="linear-gradient" x1="33.56" y1="-52.42" x2="33.56" y2="-65.24" gradientTransform="matrix(1, 0, 0, -1, 0, -32.51)" gradientUnits="userSpaceOnUse"><stop offset="0" stopColor="#fff9d7"/><stop offset="1" stopColor="#ffd807"/></linearGradient><linearGradient id="linear-gradient-2" x1="19.18" y1="-52.42" x2="19.18" y2="-65.24" xlink:href="#linear-gradient"/></defs><g id="Layer_2" data-name="Layer 2"><g id="Layer_1-2" data-name="Layer 1"><path class="cls-1" d="M26.83,32.73V19.91h6.88a8.94,8.94,0,0,1,5,1.09,4.2,4.2,0,0,1,1.59,3.75,4,4,0,0,1-1.21,3.19,6,6,0,0,1-3.38,1.13c-.65.06-1.44.09-2.35.09v3.57Zm6.52-5.51h.55a.52.52,0,0,0,.38-.15.53.53,0,0,0,.15-.39v-.86a.47.47,0,0,0-.15-.37.51.51,0,0,0-.38-.14h-.55Z"/><path class="cls-2" d="M19.34,28.4h-.4l-.44,4.33H12.34l1.2-6.61-1.2-6.21h6.13l.47,5.4h.45l.42-5.4H26l-1.27,6.32L26,32.73H19.83Z"/><rect class="cls-3" width="52.63" height="52.63"/></g></g></svg>